<?xml version="1.0" encoding="utf-8"?>
<!-- Generator: Adobe Illustrator 25.4.1, SVG Export Plug-In . SVG Version: 6.00 Build 0)  -->
<svg version="1.1" id="Layer_1" xmlns="http://www.w3.org/2000/svg" xmlns:xlink="http://www.w3.org/1999/xlink" x="0px" y="0px"
	 viewBox="0 0 492.7 105.8" style="enable-background:new 0 0 492.7 105.8;" xml:space="preserve">
<style type="text/css">
	.st0{fill:#3E1707;}
	.st1{fill:#FFFFFF;}
	.st2{fill:#FDB515;}
	.st3{fill:#00AAE7;}
	.st4{fill:#1E63AF;}
</style>
<g>
	<g>
		<g>
			<rect x="234.6" y="31.8" class="st0" width="1.1" height="50.1"/>
		</g>
	</g>
	<g>
		<g>
			<rect x="73" y="80.2" class="st0" width="12.1" height="1.6"/>
			<path class="st0" d="M80.1,73.3c0,2.4-1.6,4-3.8,4c-2.2,0-3.8-1.6-3.8-4c0-2.4,1.6-4,3.8-4C78.5,69.3,80.1,70.9,80.1,73.3z
				 M74.9,73.3c0,2.6,0.4,3.6,1.4,3.6c1,0,1.4-1,1.4-3.6c0-2.6-0.4-3.6-1.4-3.6C75.3,69.7,74.9,70.7,74.9,73.3z"/>
			<path class="st0" d="M86.8,67.4c0,0.4-0.3,0.7-0.8,0.9h-0.3c-0.4-1.4-0.7-1.7-1.2-1.7c-0.5,0-0.8,0.4-0.8,1.6v1.3h1.6V70h-1.6
				v5.7c0,1,0,1,1.4,1.1v0.4h-4.6v-0.4c0.9-0.1,0.9-0.1,0.9-1.1V70h-0.9v-0.4l0.9-0.1v-0.3c0-1.4,0.9-2.9,3.3-2.9
				C86,66.2,86.8,66.6,86.8,67.4z"/>
			<path class="st0" d="M111.7,41.8v8.9c0,2.1,0,2.1,1.8,2.3v0.9h-7.9V53c1.3-0.2,1.3-0.2,1.3-2.3v-9.1c0-1.1-0.5-2.2-1.9-2.2
				c-2.2,0-3.1,3.2-3.1,5.1v6.2c0,2.1,0,2.1,1.9,2.3v0.9h-8.4V53c1.8-0.2,1.8-0.2,1.8-2.3V40.5c0-1.5-0.1-1.5-1.8-1.6v-0.9
				c2.1-0.3,3.9-0.6,5-0.6c1.2,0,1.6,0.2,1.6,1.6v2.2c0.9-3,3-3.8,5.2-3.8C109.8,37.3,111.7,38.7,111.7,41.8z"/>
			<path class="st0" d="M121.1,38.9v11.8c0,2.1,0,2.1,1.9,2.3v0.9h-8.4V53c1.8-0.2,1.8-0.2,1.8-2.3V40.5c0-1.5-0.2-1.5-1.8-1.6v-0.9
				c2.1-0.3,3.9-0.6,5-0.6C120.7,37.3,121.1,37.5,121.1,38.9z M121.3,33.2c0,1.3-1,2.5-2.7,2.5c-1.7,0-2.8-1.2-2.8-2.5
				c0-1.4,1-2.6,2.8-2.6C120.3,30.6,121.3,31.8,121.3,33.2z"/>
			<path class="st0" d="M167.9,39.5c0,1.1-0.7,1.8-1.1,2.1l-0.5,0.2c-0.6-0.6-1.4-1-2.2-1c-1.3,0-2.7,1.5-2.7,4.1v5.9
				c0,2.1-0.1,2.1,3.1,2.2v0.9h-9.6V53c1.8-0.2,1.8-0.2,1.8-2.2V40.5c0-1.5-0.1-1.5-1.8-1.6v-0.9c2.2-0.3,4.1-0.6,5.1-0.6
				c1,0,1.4,0.3,1.4,1.7v3c0.9-3.6,2.4-4.7,4.2-4.7C167,37.3,167.9,38.3,167.9,39.5z"/>
			<path class="st0" d="M179.4,38.1c0.6,0.3,0.7,1,0.8,1.4l0.4,3.1h-0.9c-1-3.3-2.3-4.4-3.9-4.4c-1.4,0-2.4,0.8-2.4,2.3
				c0,3.6,7.9,2.8,7.9,8.5c0,2.9-2.4,5.3-6.9,5.3c-1.5,0-3-0.2-4.5-0.8c-0.7-0.3-0.8-0.7-1-1.4l-0.4-2.7h0.9c1.3,3.2,2.7,4,4.8,4
				c1.5,0,2.7-0.9,2.7-2.6c0-3.9-7.8-3-7.8-8.6c0-2.5,1.8-4.9,6.2-4.9C176.5,37.3,177.9,37.4,179.4,38.1z"/>
			<path class="st0" d="M189.1,38.9v11.8c0,2.1,0,2.1,1.9,2.3v0.9h-8.4V53c1.8-0.2,1.8-0.2,1.8-2.3V40.5c0-1.5-0.2-1.5-1.8-1.6v-0.9
				c2.1-0.3,3.9-0.6,5-0.6C188.7,37.3,189.1,37.5,189.1,38.9z M189.4,33.2c0,1.3-1,2.5-2.7,2.5c-1.7,0-2.8-1.2-2.8-2.5
				c0-1.4,1-2.6,2.8-2.6C188.4,30.6,189.4,31.8,189.4,33.2z"/>
			<path class="st0" d="M134.3,37.6v0.9c0.4,0,0.7,0.1,1,0.1c1.1,0.2,0.9,0.6,0.7,1.4l-2.8,9l-3.4-8.9c-0.4-1-0.1-1.4,1.8-1.5v-0.9
				h-8.8v0.9c1.2,0.2,1.5,0.3,1.9,1.3l5.6,14.3h2.5l4.7-14.1c0.4-1.1,0.6-1.3,2.4-1.5v-0.9H134.3z"/>
			<path class="st0" d="M153.4,43.6c0-4.7-3.4-6.3-6.5-6.3c-4.3,0-8,3.4-8,8.5c0,5.2,3.3,8.5,7.9,8.5c3.1,0,5.4-2,6.5-3.6l-0.4-0.6
				c-0.9,1-2.4,1.7-4.1,1.7c-2,0-4.7-1-4.9-6.3h9.4C153.4,44.6,153.4,44.1,153.4,43.6z M148.9,44.3h-5c0.1-4.1,1-6.2,2.9-6.2
				c1.6,0,2.4,1.4,2.4,4.1C149.2,43.1,149,43.7,148.9,44.3z"/>
			<path class="st0" d="M212.8,37.6v0.9c2.1,0.2,1.9,0.6,1.7,1.5l-2.8,8.5l-3.4-8.5c-0.4-1-0.1-1.4,1.8-1.5v-0.9h-6.4h-2.4h-3.1
				v-3.9H197l-3.5,3.9l-2,0.3v0.9h2v11.8c0,2.8,1.5,3.6,3.7,3.6c1.8,0,3.3-0.2,4.6-0.3V53c-2.6,0-3.6-0.5-3.6-3V38.8h4
				c0.4,0,0.7,0.2,0.9,0.6l6.6,15.8c-0.8,2.1-2.4,2.7-3.4,2.7c-1.2,0-2.5-0.4-3.4-1.2l-0.3,0.3c0,1.4,0.7,3.5,3.1,3.5
				c2.1,0,3.9-1.1,5.7-6.4L216,40c0.4-1.1,0.6-1.3,2.4-1.5v-0.9H212.8z"/>
			<path class="st0" d="M113.7,60.6v-0.9h-7.5h-0.4L101,77l-5.1-17.3h-7.6v0.9c1.8,0.2,2,0.2,2,2.3v15.8c0,2.1-0.1,2.1-2,2.3v0.9
				h5.8V81c-2.5-0.2-2.2-0.2-2.2-2.3V64.3l5.4,17.5h3.9l5.4-19.1v16c0,2.1-0.1,2.1-2,2.3v0.9h9.1V81c-1.9-0.2-2-0.2-2-2.3V62.9
				C111.7,60.8,111.8,60.8,113.7,60.6z"/>
			<path class="st0" d="M128,70.3v8.5c0,1.4,0.1,2,1.8,2.1v0.9c-1.4,0.3-2.2,0.3-3,0.3c-2.2,0-3.4-0.7-3.5-3.1
				c-1,2.2-2.7,3.1-4.7,3.1c-2.4,0-4.2-1.4-4.2-4c0-3.5,3.3-4.7,8.9-5.5v-3.4c0-1.7-0.6-3-2.3-3c-1.4,0-2.2,0.7-2.2,2
				c0,0.6,0.1,1.3,0.3,1.9l-0.3,0.3c-0.5,0.2-1,0.4-1.5,0.4c-1.2,0-2.1-0.8-2.1-2.1c0-2,2.6-3.5,6.3-3.5
				C126.1,65.3,128,67.2,128,70.3z M123.2,73.6c-2.3,0.4-3.9,1.3-3.9,3.6c0,1.7,0.8,2.4,1.8,2.4c1.5,0,2.1-1.8,2.1-3.8V73.6z"/>
			<path class="st0" d="M146.8,69.8v8.9c0,2.1,0,2.1,1.8,2.3v0.9h-7.9V81c1.3-0.2,1.3-0.2,1.3-2.3v-9.1c0-1.1-0.5-2.2-1.9-2.2
				c-2.2,0-3.1,3.2-3.1,5.1v6.2c0,2.1,0,2.1,1.9,2.3v0.9h-8.4V81c1.8-0.2,1.8-0.2,1.8-2.3V68.4c0-1.5-0.1-1.5-1.8-1.6v-0.9
				c2.1-0.3,3.9-0.6,5-0.6c1.2,0,1.6,0.2,1.6,1.6v2.2c0.9-3,3-3.8,5.2-3.8C144.9,65.3,146.8,66.7,146.8,69.8z"/>
			<path class="st0" d="M156.1,66.9v11.8c0,2.1,0,2.1,1.9,2.3v0.9h-8.4V81c1.8-0.2,1.8-0.2,1.8-2.3V68.4c0-1.5-0.2-1.5-1.8-1.6v-0.9
				c2.1-0.3,3.9-0.6,5-0.6C155.7,65.3,156.1,65.5,156.1,66.9z M156.4,61.2c0,1.3-1,2.5-2.7,2.5c-1.7,0-2.8-1.2-2.8-2.5
				c0-1.4,1-2.6,2.8-2.6C155.4,58.6,156.4,59.8,156.4,61.2z"/>
			<path class="st0" d="M168.7,65.6v1.2h-3.6V78c0,2.5,0.9,3,3.6,3v0.9c-1.3,0.2-2.8,0.3-4.6,0.3c-2.3,0-3.7-0.8-3.7-3.6V66.8h-2
				v-0.9l2-0.3l3.5-3.9h1.2v3.9H168.7z"/>
			<path class="st0" d="M184.5,73.7c0,5.1-3.4,8.5-7.9,8.5c-4.6,0-7.9-3.4-7.9-8.5s3.4-8.5,7.9-8.5
				C181.2,65.3,184.5,68.6,184.5,73.7z M173.6,73.7c0,5.5,0.9,7.6,2.9,7.6s2.9-2.1,2.9-7.6c0-5.5-0.9-7.6-2.9-7.6
				C174.5,66.1,173.6,68.2,173.6,73.7z"/>
			<path class="st0" d="M191.3,60.3v8.5c0.8-2.5,2.6-3.6,4.8-3.6c3.6,0,6,2.5,6,8.5c0,4.9-2.6,8.5-7,8.5c-1.5,0-2.6-0.2-3.7-1
				l-3.8,1h-0.9V61.9c0-1.4-0.2-1.4-1.8-1.6v-0.9c2.1-0.3,3.9-0.6,5-0.6C190.9,58.7,191.3,59,191.3,60.3z M191.3,72.5v7.7
				c0.7,0.7,1.6,1,2.4,1c2.3,0,3.3-1.8,3.3-7.4c0-5.5-1.6-6.4-2.9-6.4C192.7,67.4,191.3,68.7,191.3,72.5z"/>
			<path class="st0" d="M216.8,70.3v8.5c0,1.4,0.1,2,1.8,2.1v0.9c-1.4,0.3-2.2,0.3-3,0.3c-2.2,0-3.4-0.7-3.5-3.1
				c-1,2.2-2.7,3.1-4.7,3.1c-2.4,0-4.2-1.4-4.2-4c0-3.5,3.3-4.7,8.9-5.5v-3.4c0-1.7-0.6-3-2.3-3c-1.4,0-2.2,0.7-2.2,2
				c0,0.6,0.1,1.3,0.3,1.9l-0.3,0.3c-0.5,0.2-1,0.4-1.5,0.4c-1.2,0-2.1-0.8-2.1-2.1c0-2,2.6-3.5,6.3-3.5
				C214.9,65.3,216.8,67.2,216.8,70.3z M212.1,73.6c-2.3,0.4-3.9,1.3-3.9,3.6c0,1.7,0.8,2.4,1.8,2.4c1.5,0,2.1-1.8,2.1-3.8V73.6z"/>
			<path class="st0" d="M92.8,34.9l-0.1,10.5c0,5.7-2.9,8.8-8,8.8c-5.9,0-9.8-3.3-9.8-8.9V34.9h0c0-2.1,0-2.1-2-2.3v-0.9h9.1v0.9
				c-1.9,0.2-2,0.2-2,2.3l0,0v10.6c0,4.3,2.1,6.7,5.5,6.7c3.9,0,5.5-2.6,5.5-6.8V34.9v0c0-2.1-1-2.1-2.9-2.3v-0.9h7.5v0.9
				C94,32.8,92.8,32.8,92.8,34.9L92.8,34.9z"/>
		</g>
		<g>
			<g>
				<path class="st1" d="M57.7,56.3v-13l0,0V23.2c0-3.7-2.1-7.2-5.5-8.7L28,3c-0.6-0.3-3.4-1.6-5.4-3v7.1c0,1.3,0.1,2.7,0.8,3.7
					c-4.3-2-7.5-3.6-7.8-3.7c-1-0.5-4.2-2.2-5.9-3.7c0,2.1,0,12.4,0,12.4c0,1.7,0.4,3.9,1.6,4.9l-3.9-1.8c-2.1-1-5.7-3.8-7.4-7.3
					l0,15.2h0v52.9h0l0,0.3c0,5.9,3.3,11.5,8.6,14.5l20.3,11.4l13.5-7.7v0l1-0.6l1.1-0.6v0l4.6-2.6c5.3-3,8.6-8.5,8.6-14.5
					L57.7,56.3z"/>
			</g>
			<g>
				<path class="st2" d="M2.3,78.2l0,1.7c0,5.1,2.8,9.8,7.4,12.4l19.1,10.7l12.9-7.3C38.8,84.4,11,82.4,2.3,78.2z"/>
			</g>
			<path class="st0" d="M55.4,57.3c-2.1,3.7-5.7,5.7-9.3,6.9c-1.6,0.6-3.6,1.1-6,1.7c0.5-0.7,1-1.3,1.3-1.6c0.8-1,1.5-1.5,1.1-2.4
				c-0.4-0.9-1-1.9-2.2-3.2c-0.7,0-1.9,0.4-2,0.5c2.2-1.8,4.5-1.9,5.6-1.6c1.2,0.3,1.9,1.1,1.9,2.2c0.8-0.9,1.3-2.5,1.4-4
				c0.6-0.3,1.1-0.5,1.3-0.8c0.2-0.2,0.3-0.5,0.3-0.9c0-1.4,0.9-3.3,0.8-4.6c0-2-1-3.2-2.2-3.9c0.5-0.3,1-0.6,1.6-0.9
				c-1.3,0.3-2.4-0.7-4.1-1.1c-1.5-0.4-2.7,0.2-3.3,1.3c-0.1,0.2-0.5,0.3-0.7,0.1c-3.2-3.5-7.3-3.4-10.8-0.3
				c-4.5,3.9-7.8,5.9-10.2,7.2c-2.8,1.5-3.6,2.7-4.2,4c-1-0.6-1.8-0.4-2.3-0.1c-0.8,0.5-1.1,1.5-1.5,2.4c-0.6,1.6-2.3,4.3-4.2,4.3
				c2.5,0.9,3.8,0.2,4.5-1.1c0.6-1,0.5-2.2,0.7-3.3c0.2-1,1-2.1,2.3-1.3c-0.4,1.3-0.7,3.4-0.5,4.8c0.2,1.8,0.3,5-0.3,5.8
				c0,1.9-0.1,2.9-0.7,4.2c-0.2,0.4-0.4,0.9-0.5,1.3c-3,1-5.6,2.1-7.6,3.2c3.2,1.5,7.8,2.7,12.7,4c11,2.9,23.6,6.2,25.7,14.7l4-2.3
				c4.6-2.6,7.4-7.3,7.4-12.5L55.4,57.3z M46.2,49.7c0.2-0.2,0.4-0.2,0.6,0c0.2,0.2,0.2,0.8,0.2,0.8s-0.6,0-0.8-0.2
				C46.1,50.1,46.1,49.9,46.2,49.7z M44.2,45c0.1-0.1,0.3-0.2,0.5-0.3c0,0-0.1,0.1-0.2,0.3c-0.3,0.6-1,1.9,0,3.1
				c0.5,0.5-0.2,1-0.8,0.7C43.3,48.5,41.9,46.7,44.2,45z M35.5,60.6c0.8,1.1,1.8,1.8,2.4,2c0.5,0.2,1.2,0.2,1.5,0.2
				c0.3,0,0.5,0.2,0.3,0.5c-0.2,0.5-0.9,0.9-1.2,1.3c-0.4,0.5-0.5,1.2-0.4,1.8c-1.1,0.2-2.2,0.5-3.4,0.8c-0.8-1.2-1-2.5-1-3.4
				C33.9,62.2,34.7,61,35.5,60.6z M15.7,71.9c-0.1-0.8-0.1-1.7,0.2-2.6c1-3.3,2.7-3.6,3.6-6.9c0.4-1.5,0.9-1.2,2.1-1
				c3.6,0.6,5.2,0.4,7.7-0.8c-0.3,2.1,0,5.5,2.9,7.2c-1.9,0.4-3.7,0.8-5.6,1.3c-1-0.7-2.1-1.4-2.4-1.7c-0.8-0.7-0.9-1.3-0.4-2.3
				c0.4-0.8,0.8-1.4,1-1.9c0.2-0.5,0.1-0.7-0.6-0.8c-1.7-0.2-2.5-0.3-3.6-0.6c0.3,0.7,1.1,3.2,0.1,4.6c0.5,1,1.9,2.3,3.1,3.2
				C21,70.4,18.2,71.1,15.7,71.9z"/>
			<g>
				<path class="st2" d="M49.2,76.6c-2.6-3.3-4.3-4.3-3.7-8.2c-1.6,1.6-2.7,3-2.7,5.8c0,2.7,2.9,5.2,4.1,7.7
					c0.6,1.3,0.7,2.5,0.1,3.8c0.1-1.1-0.7-2.1-1.5-2.8c-1.1-1-1.6-1.1-2.7-2.6c-0.6-0.8-1-1.9-0.9-3.5c-0.6,1.4-1.2,3.2-1.2,4.2
					c0,4.8,5.5,4.3,4.5,7.3c4.8-1.7,5.9-5,5.9-6.9C51.2,79.4,50.3,78,49.2,76.6z"/>
			</g>
			<g>
				<path class="st3" d="M55.4,27.6c-1.1-2.1-5.9-4.6-11.8-7.4s-14.7-7-14.7-7C26.5,12.1,25,9.7,25,7.1V4c0.5,0.4,1.2,0.8,2.3,1.3
					c1.1,0.5,23.9,11.3,23.9,11.3c2.5,1.2,4.1,3.8,4.1,6.6L55.4,27.6z"/>
			</g>
			<g>
				<path class="st4" d="M12.1,7.7v6.5c0,2.7,1.6,5.2,4,6.4c0,0,18.7,8.9,24.6,11.6c5.6,2.7,12.6,6.9,14.7,11.1v-9.2
					c0-4.1-2.3-6.7-6-8.4c0,0-33.6-15.9-34.7-16.4C13.6,8.7,12.7,8.2,12.1,7.7z"/>
			</g>
			<g>
				<path class="st4" d="M23.5,38.2c0,0-19.7-9.4-20.1-9.5c-0.4-0.2-0.8-0.5-1-0.8v26.6c2-3.9,4.9-6.1,10.7-7.5
					c4.2-1.1,8.3-2.1,10.1-2.6C26.4,43.3,26.2,39.6,23.5,38.2z"/>
			</g>
			<g>
				<path class="st3" d="M25.6,30c-6.5-3.1-17-8-19.1-9.1c-2.2-1-3.5-2.1-4.1-3.5v5.2c0,1.7,1,3.3,2.6,4.1l19,9
					c1.2,0.6,3.2,1.9,3.2,4.6c0,1.3-0.6,2.5-1.3,3.3C31.2,40.9,32.1,33.1,25.6,30z"/>
			</g>
		</g>
	</g>
	<g>
		<path class="st0" d="M266.2,46.5c-1.3,4.8-4.1,6.4-7.8,6.4c-5.5,0-8.1-4.1-8.1-10.9c0-6.8,3.1-10.6,8.2-10.6
			c3.8,0,6.2,1.8,7.3,6.2l-2.6,0.5c-0.9-3.1-2.4-4.3-4.8-4.3c-3.4,0-5.4,3.1-5.4,8.2c0,5.5,1.7,8.4,5.3,8.4c2.5,0,4.2-1.3,5.1-4.5
			L266.2,46.5z"/>
		<path class="st0" d="M274.5,52.9c-4,0-6.4-3-6.4-7.9c0-4.8,2.6-7.9,6.4-7.9c4.1,0,6.2,2.9,6.2,7.3c0,0.2,0,0.5,0,0.9h-10.1
			c0.1,3.3,1.3,5.4,4.1,5.4c1.7,0,3.1-0.7,4.1-2.7l1.9,1C279.2,51.9,277,52.9,274.5,52.9z M270.6,43.6h7.7c0-2.6-1.4-4.4-3.8-4.4
			S270.9,41.2,270.6,43.6z"/>
		<path class="st0" d="M292.6,52.6V42.3c0-2-0.8-2.9-2.5-2.9c-1.3,0-2.6,0.6-4.3,2.3v10.9h-2.5v-15h2.3v2.1c1.7-1.7,3.2-2.4,5.1-2.4
			c1.6,0,2.8,0.5,3.4,1.6c0.6,0.8,0.8,1.9,0.8,3.6v10.2H292.6z"/>
		<path class="st0" d="M304.7,52.6c-0.7,0.1-1.4,0.2-2.3,0.2c-2.5,0-3.4-1-3.4-3.9v-9.3h-2.2v-2h2.2v-5h2.4v5h3.2v2h-3.2v9.2
			c0,1.3,0.5,1.9,1.6,1.9c0.6,0,1-0.1,1.7-0.2V52.6z"/>
		<path class="st0" d="M307.6,52.6v-15h2.3v2.8c1.3-2.3,2.7-3.2,4.6-3.2c0.2,0,0.3,0,0.5,0v2.4c-0.2,0-0.4,0-0.6,0
			c-2.1,0-3.5,1.6-4.4,3.6v9.3H307.6z"/>
		<path class="st0" d="M322.1,52.9c-4,0-6.4-3-6.4-7.9c0-4.8,2.6-7.9,6.4-7.9c4.1,0,6.2,2.9,6.2,7.3c0,0.2,0,0.5,0,0.9h-10.1
			c0.1,3.3,1.3,5.4,4.1,5.4c1.7,0,3.1-0.7,4.1-2.7l1.9,1C326.8,51.9,324.6,52.9,322.1,52.9z M318.2,43.6h7.7c0-2.6-1.4-4.4-3.8-4.4
			S318.5,41.2,318.2,43.6z"/>
		<path class="st0" d="M338.7,52.6v-13h-2.4v-2h2.4v-1.8c0-2.9,1.1-4.4,4.1-4.4c0.5,0,1,0,1.5,0.1v2.1c-0.4-0.1-0.8-0.1-1.2-0.1
			c-1.3,0-2,0.4-2,2.1v2h3.1v2h-3.1v13H338.7z"/>
		<path class="st0" d="M345.4,45.1c0-5,2.4-7.9,6.4-7.9c4,0,6.4,2.9,6.4,7.9c0,4.8-2.5,7.8-6.4,7.8S345.4,50,345.4,45.1z
			 M355.7,45.1c0-3.5-1.2-5.9-3.9-5.9c-2.7,0-3.9,2.4-3.9,5.9c0,3.5,1.3,5.7,3.9,5.7S355.7,48.6,355.7,45.1z"/>
		<path class="st0" d="M360.8,52.6v-15h2.3v2.8c1.3-2.3,2.7-3.2,4.6-3.2c0.2,0,0.3,0,0.5,0v2.4c-0.2,0-0.4,0-0.6,0
			c-2.1,0-3.5,1.6-4.4,3.6v9.3H360.8z"/>
		<path class="st0" d="M377.3,52.6V31.8h12.6v2.4h-9.8v6.4h7V43h-7v7.2h10.2v2.4H377.3z"/>
		<path class="st0" d="M401.6,52.6l-0.2-1.8c-1.6,1.4-3.4,2.1-5.2,2.1c-2.6,0-4.2-1.6-4.2-4c0-1.8,0.8-3.2,2.5-4.1
			c1.5-0.8,4.1-1.5,6.9-2c0.2-2.6-0.8-3.5-3-3.5c-1.8,0-2.9,0.7-3.9,2.3l-1.8-1.1c1.4-2.2,3.3-3.1,5.8-3.1c3.7,0,5.3,1.6,5.3,4.9
			v8.1l0.2,2.3H401.6z M401.3,44.5c-2.8,0.6-4.4,1-5.5,1.6c-0.9,0.5-1.3,1.4-1.3,2.5c0,1.4,0.8,2.3,2.3,2.3c1.6,0,3.4-0.8,4.5-2.1
			V44.5z"/>
		<path class="st0" d="M406.6,52.6v-15h2.3v2.8c1.3-2.3,2.7-3.2,4.6-3.2c0.2,0,0.3,0,0.5,0v2.4c-0.2,0-0.4,0-0.6,0
			c-2.1,0-3.5,1.6-4.4,3.6v9.3H406.6z"/>
		<path class="st0" d="M423.5,52.6c-0.7,0.1-1.4,0.2-2.3,0.2c-2.5,0-3.4-1-3.4-3.9v-9.3h-2.2v-2h2.2v-5h2.4v5h3.2v2h-3.2v9.2
			c0,1.3,0.5,1.9,1.6,1.9c0.6,0,1-0.1,1.7-0.2V52.6z"/>
		<path class="st0" d="M435.2,52.6v-9.7c0-2.1-0.3-3.5-2.6-3.5c-1.5,0-2.8,0.8-4.3,2.3v10.9h-2.5V31.8h2.5v7.7
			c1.9-1.7,3.3-2.3,4.9-2.3c1.7,0,2.8,0.5,3.6,1.6c0.7,0.9,0.8,2.1,0.8,4.1v9.7H435.2z"/>
		<path class="st0" d="M250.4,71.5c0-6.2,2.9-10.8,8.5-10.8c5.6,0,8.5,4.6,8.5,10.8c0,6.6-3.2,10.8-8.5,10.8
			C253.6,82.2,250.4,78.1,250.4,71.5z M264.7,71.5c0-5.3-2.2-8.4-5.7-8.4c-3.6,0-5.8,3.1-5.8,8.4c0,5.3,2.2,8.4,5.8,8.4
			S264.7,76.7,264.7,71.5z"/>
		<path class="st0" d="M269.5,81.9V61h2.5v7.6c1.3-1.4,2.7-2,4.4-2c3.6,0,6,3,6,7.8c0,4.6-2.2,7.8-5.9,7.8c-2,0-3.3-0.6-4.8-2.1
			l-0.4,1.7H269.5z M272,77.8c0.9,1.4,2.4,2.2,3.9,2.2c2.5,0,4-2.1,4-5.7c0-3.5-1.5-5.7-4-5.7c-1.5,0-2.9,0.8-3.9,2.3V77.8z"/>
		<path class="st0" d="M292.4,70.5c-1-1.5-2-2-3.5-2c-1.6,0-2.5,0.8-2.5,2.1c0,3.4,8.4,1.2,8.4,7.2c0,2.8-2.3,4.4-5.5,4.4
			c-2.7,0-4.4-1-5.7-3l1.8-1.3c1.1,1.7,2.1,2.3,4,2.3c2,0,3-0.9,3-2.3c0-3.9-8.3-1.5-8.3-7.2c0-2.5,2-4.2,5-4.2
			c2.4,0,4.1,0.8,5.2,2.8L292.4,70.5z"/>
		<path class="st0" d="M303,82.2c-4,0-6.4-3-6.4-7.9c0-4.8,2.6-7.9,6.4-7.9c4.1,0,6.2,2.9,6.2,7.3c0,0.2,0,0.5,0,0.9h-10.1
			c0.1,3.3,1.3,5.4,4.1,5.4c1.7,0,3.1-0.7,4.1-2.7l1.9,1C307.8,81.2,305.6,82.2,303,82.2z M299.2,72.9h7.7c0-2.6-1.4-4.4-3.8-4.4
			S299.5,70.5,299.2,72.9z"/>
		<path class="st0" d="M311.9,81.9v-15h2.3v2.8c1.3-2.3,2.7-3.2,4.6-3.2c0.2,0,0.3,0,0.5,0V69c-0.2,0-0.4,0-0.6,0
			c-2.1,0-3.5,1.6-4.4,3.6v9.3H311.9z"/>
		<path class="st0" d="M325.9,81.9l-5.1-15h2.7l3.7,11.6h0.1l3.8-11.6h2.6l-5.2,15H325.9z"/>
		<path class="st0" d="M343.7,81.9l-0.2-1.8c-1.6,1.4-3.4,2.1-5.2,2.1c-2.6,0-4.2-1.6-4.2-4c0-1.8,0.8-3.2,2.5-4.1
			c1.5-0.8,4.1-1.5,6.9-2c0.2-2.6-0.8-3.5-3-3.5c-1.8,0-2.9,0.7-3.9,2.3l-1.8-1.1c1.4-2.2,3.3-3.1,5.8-3.1c3.7,0,5.3,1.6,5.3,4.9
			v8.1l0.2,2.3H343.7z M343.4,73.8c-2.8,0.6-4.4,1-5.5,1.6c-0.9,0.5-1.3,1.4-1.3,2.5c0,1.4,0.8,2.3,2.3,2.3c1.6,0,3.4-0.8,4.5-2.1
			V73.8z"/>
		<path class="st0" d="M356.2,81.9c-0.7,0.1-1.4,0.2-2.3,0.2c-2.5,0-3.4-1-3.4-3.9v-9.3h-2.2v-2h2.2v-5h2.4v5h3.2v2h-3.2v9.2
			c0,1.3,0.5,1.9,1.6,1.9c0.6,0,1-0.1,1.7-0.2V81.9z"/>
		<path class="st0" d="M358.9,63.9v-3h2.7v3H358.9z M359.1,81.9v-15h2.5v15H359.1z"/>
		<path class="st0" d="M364.1,74.4c0-5,2.4-7.9,6.4-7.9c4,0,6.4,2.9,6.4,7.9c0,4.8-2.5,7.8-6.4,7.8S364.1,79.2,364.1,74.4z
			 M374.4,74.4c0-3.5-1.2-5.9-3.9-5.9c-2.7,0-3.9,2.4-3.9,5.9c0,3.5,1.3,5.7,3.9,5.7S374.4,77.9,374.4,74.4z"/>
		<path class="st0" d="M388.7,81.9V71.6c0-2-0.8-2.9-2.5-2.9c-1.3,0-2.6,0.6-4.3,2.3v10.9h-2.5v-15h2.3v2.1c1.7-1.7,3.2-2.4,5.1-2.4
			c1.6,0,2.8,0.5,3.4,1.6c0.6,0.8,0.8,1.9,0.8,3.6v10.2H388.7z"/>
		<path class="st0" d="M411.8,66.2c-0.9-2.1-2.1-3.2-4.4-3.2c-2.3,0-3.9,1.1-3.9,3.1c0,4.7,11.2,2.5,11.2,9.9c0,4-2.9,6.1-7,6.1
			c-3.9,0-6.1-1.6-7.4-5.4l2.6-0.9c0.8,2.6,2.2,3.9,5,3.9c2.5,0,4.3-1.2,4.3-3.5c0-5.2-11.1-2.7-11.1-10.1c0-3.5,2.7-5.6,6.5-5.6
			c3.6,0,5.8,1.7,6.8,4.7L411.8,66.2z"/>
		<path class="st0" d="M429.6,78.3c-1.4,2.6-3.4,3.9-6.2,3.9c-4.1,0-6.5-3-6.5-7.8c0-5,2.5-7.9,6.6-7.9c2.8,0,4.8,1.2,5.8,4.1
			l-2.1,0.8c-0.8-1.9-1.9-2.8-3.7-2.8c-2.6,0-4.2,2.1-4.2,5.8c0,3.7,1.6,5.7,4.2,5.7c1.8,0,3-0.8,4.1-2.9L429.6,78.3z"/>
		<path class="st0" d="M431.7,63.9v-3h2.7v3H431.7z M431.8,81.9v-15h2.5v15H431.8z"/>
		<path class="st0" d="M443.2,82.2c-4,0-6.4-3-6.4-7.9c0-4.8,2.6-7.9,6.4-7.9c4.1,0,6.2,2.9,6.2,7.3c0,0.2,0,0.5,0,0.9h-10.1
			c0.1,3.3,1.3,5.4,4.1,5.4c1.7,0,3.1-0.7,4.1-2.7l1.9,1C447.9,81.2,445.7,82.2,443.2,82.2z M439.4,72.9h7.7c0-2.6-1.4-4.4-3.8-4.4
			C440.9,68.5,439.6,70.5,439.4,72.9z"/>
		<path class="st0" d="M461.3,81.9V71.6c0-2-0.8-2.9-2.5-2.9c-1.3,0-2.6,0.6-4.3,2.3v10.9h-2.5v-15h2.3v2.1c1.7-1.7,3.2-2.4,5.1-2.4
			c1.6,0,2.8,0.5,3.4,1.6c0.6,0.8,0.8,1.9,0.8,3.6v10.2H461.3z"/>
		<path class="st0" d="M478.8,78.3c-1.4,2.6-3.4,3.9-6.2,3.9c-4.1,0-6.5-3-6.5-7.8c0-5,2.5-7.9,6.6-7.9c2.8,0,4.8,1.2,5.8,4.1
			l-2.1,0.8c-0.8-1.9-1.9-2.8-3.7-2.8c-2.6,0-4.2,2.1-4.2,5.8c0,3.7,1.6,5.7,4.2,5.7c1.8,0,3-0.8,4.1-2.9L478.8,78.3z"/>
		<path class="st0" d="M486.4,82.2c-4,0-6.4-3-6.4-7.9c0-4.8,2.6-7.9,6.4-7.9c4.1,0,6.2,2.9,6.2,7.3c0,0.2,0,0.5,0,0.9h-10.1
			c0.1,3.3,1.3,5.4,4.1,5.4c1.7,0,3.1-0.7,4.1-2.7l1.9,1C491.1,81.2,488.9,82.2,486.4,82.2z M482.6,72.9h7.7c0-2.6-1.4-4.4-3.8-4.4
			C484.1,68.5,482.9,70.5,482.6,72.9z"/>
	</g>
</g>
</svg>
