<?xml version="1.0" encoding="UTF-8" standalone="no"?>
<!-- Created with Inkscape (http://www.inkscape.org/) -->

<svg
   version="1.1"
   id="svg20591"
   width="270"
   height="50"
   viewBox="0 0 270 50"
   sodipodi:docname="logo_test.svg"
   inkscape:export-filename="logo.png"
   inkscape:export-xdpi="96"
   inkscape:export-ydpi="96"
   inkscape:version="1.2.2 (b0a8486541, 2022-12-01)"
   xmlns:inkscape="http://www.inkscape.org/namespaces/inkscape"
   xmlns:sodipodi="http://sodipodi.sourceforge.net/DTD/sodipodi-0.dtd"
   xmlns="http://www.w3.org/2000/svg"
   xmlns:svg="http://www.w3.org/2000/svg">
  <defs
     id="defs20595">
    <clipPath
       clipPathUnits="userSpaceOnUse"
       id="clipPath22">
      <path
         d="M 0,595.276 H 841.89 V 0 H 0 Z"
         id="path20" />
    </clipPath>
  </defs>
  <sodipodi:namedview
     id="namedview20593"
     pagecolor="#505050"
     bordercolor="#ffffff"
     borderopacity="1"
     inkscape:showpageshadow="0"
     inkscape:pageopacity="0"
     inkscape:pagecheckerboard="1"
     inkscape:deskcolor="#505050"
     showgrid="false"
     inkscape:zoom="2.512963"
     inkscape:cx="133.50774"
     inkscape:cy="136.69123"
     inkscape:window-width="2560"
     inkscape:window-height="1384"
     inkscape:window-x="0"
     inkscape:window-y="32"
     inkscape:window-maximized="1"
     inkscape:current-layer="g20597" />
  <g
     inkscape:groupmode="layer"
     inkscape:label="Image"
     id="g20597">
    <g
       id="g27707"
       transform="matrix(0.86366065,0,0,0.86366065,267.82059,32.156897)">
      <g
         id="g16"
         transform="matrix(0.54563838,0,0,-0.54563838,-379.60961,235.00666)">
        <g
           id="g18"
           clip-path="url(#clipPath22)">
          <g
             id="g24"
             transform="translate(181.2944,479.1628)">
            <path
               d="m 0,0 c 0,-8.125 -6.587,-14.713 -14.713,-14.713 -8.126,0 -14.713,6.588 -14.713,14.713 0,8.126 6.587,14.713 14.713,14.713 C -6.587,14.713 0,8.126 0,0 Z"
               style="fill:none;stroke:#bb4218;stroke-width:6.511;stroke-linecap:butt;stroke-linejoin:miter;stroke-miterlimit:10;stroke-dasharray:none;stroke-opacity:1"
               id="path26" />
          </g>
          <g
             id="g28"
             transform="translate(203.1548,419.9953)">
            <path
               d="m 0,0 c 0,-12.203 -9.893,-22.096 -22.096,-22.096 -12.203,0 -22.095,9.893 -22.095,22.096 0,12.203 9.892,22.096 22.095,22.096 C -9.893,22.096 0,12.203 0,0 Z"
               style="fill:none;stroke:#bb4218;stroke-width:6.511;stroke-linecap:butt;stroke-linejoin:miter;stroke-miterlimit:10;stroke-dasharray:none;stroke-opacity:1"
               id="path30" />
          </g>
          <g
             id="g32"
             transform="translate(169.8179,464.8112)">
            <path
               d="M 0,0 7.548,-22.72"
               style="fill:#bb4218;fill-opacity:1;fill-rule:nonzero;stroke:#bb4218;stroke-width:6.511;stroke-linecap:butt;stroke-linejoin:miter;stroke-miterlimit:10;stroke-dasharray:none;stroke-opacity:1"
               id="path34" />
          </g>
        </g>
      </g>
      <g
         aria-label="DataverseNO"
         id="text38"
         style="font-weight:bold;font-stretch:condensed;font-size:48.8189px;font-family:'Minion Pro Cond';-inkscape-font-specification:MinionPro-BoldCn;fill:#666666;stroke-width:0.545637">
        <path
           d="m -255.83406,-23.383007 v 1.611024 c 3.22204,0.292913 3.6126,0.634645 3.6126,4.784252 V 1.5634513 c 0,4.1007877 -0.43937,4.5401578 -3.90552,4.7842523 v 1.6110238 h 10.93544 c 5.46771,0 9.91023,-1.2204726 13.13228,-4.0031499 3.22205,-2.7338585 5.27244,-6.8834651 5.27244,-12.8881899 0,-4.4425196 -1.61102,-7.9086616 -3.71023,-10.2031506 -2.78268,-3.026772 -6.98111,-4.247244 -12.74174,-4.247244 z m 9.86141,4.88189 c 0,-1.513386 0.0976,-2.196851 0.43938,-2.489764 0.34173,-0.244094 1.02519,-0.488189 2.24566,-0.488189 2.48977,0 4.68662,0.829921 6.4441,2.782677 1.85512,2.099213 3.07559,5.711812 3.07559,10.6425208 0,9.373229 -4.10079,14.0110246 -8.93386,14.0110246 -2.48976,0 -3.27087,-1.1228347 -3.27087,-4.3937011 z"
           id="path300" />
        <path
           d="m -203.69557,5.9083335 -0.43937,-1.5133859 c -0.39055,0.1464567 -0.87874,0.2929134 -1.51339,0.2929134 -0.82992,0 -1.51338,-0.6834646 -1.51338,-2.8314963 v -8.7385833 c 0,-2.2944883 -0.43937,-4.2472444 -2.09922,-5.6629924 -1.26929,-1.025197 -2.78267,-1.659843 -4.73543,-1.659843 -2.88031,0.43937 -5.90709,2.148032 -7.81102,3.466142 -1.07402,0.7811027 -1.61103,1.4645673 -1.61103,2.2456697 0,1.3669292 1.8063,2.3433073 3.07559,2.3433073 0.87874,0 1.46457,-0.3905513 1.75748,-1.5622049 0.34174,-1.5622048 0.73229,-2.6362211 1.22048,-3.2708661 0.537,-0.683465 1.02519,-0.927559 1.75748,-0.927559 1.36693,0 2.63622,1.464567 2.63622,4.2960629 v 2.001575 c -1.12284,1.0251969 -5.07717,2.3433072 -7.32284,3.2220474 -2.39212,0.9275592 -3.46614,2.34330729 -3.46614,4.8330712 0,2.8803152 2.34331,6.1023627 6.24882,6.1023627 1.17165,0 3.31968,-1.6110238 4.83307,-2.6850396 0.19528,0.488189 0.48819,1.0740158 1.12284,1.6598427 0.58582,0.5858268 1.5622,1.0251969 2.73385,1.0251969 z m -9.27559,-1.7574804 c -0.53701,0.488189 -1.0252,0.6834646 -1.70866,0.6834646 -1.2693,0 -2.92914,-1.2692914 -2.92914,-3.6614176 0,-1.65984262 0.68347,-2.440945 2.0504,-3.2708664 0.87874,-0.5370079 1.70866,-1.0740158 2.5874,-1.5622048 z"
           id="path302" />
        <path
           d="m -188.75706,6.2988847 -0.48818,-1.6110237 c -0.63465,0.2929134 -1.31811,0.5370079 -2.39213,0.5370079 -1.22047,0 -2.5874,-0.6834646 -2.5874,-4.34488219 V -11.373557 h 4.29606 c 0.73228,-0.292914 0.7811,-1.708662 0.29291,-2.24567 h -4.58897 v -6.785827 l -0.68347,-0.341732 -5.27244,3.710236 v 3.417323 h -1.70866 l -1.31811,1.708662 0.24409,0.537008 h 2.78268 V 2.4910104 c 0,4.3448822 2.09921,6.0535438 5.56536,6.0535438 0.537,0 1.22047,-0.1464567 2.00157,-0.5370079 z"
           id="path304" />
        <path
           d="m -166.39804,5.9083335 -0.43937,-1.5133859 c -0.39055,0.1464567 -0.87874,0.2929134 -1.51339,0.2929134 -0.82992,0 -1.51338,-0.6834646 -1.51338,-2.8314963 v -8.7385833 c 0,-2.2944883 -0.43937,-4.2472444 -2.09922,-5.6629924 -1.26929,-1.025197 -2.78267,-1.659843 -4.73543,-1.659843 -2.88031,0.43937 -5.90709,2.148032 -7.81102,3.466142 -1.07402,0.7811027 -1.61103,1.4645673 -1.61103,2.2456697 0,1.3669292 1.8063,2.3433073 3.07559,2.3433073 0.87874,0 1.46457,-0.3905513 1.75748,-1.5622049 0.34174,-1.5622048 0.73229,-2.6362211 1.22048,-3.2708661 0.53701,-0.683465 1.02519,-0.927559 1.75748,-0.927559 1.36693,0 2.63622,1.464567 2.63622,4.2960629 v 2.001575 c -1.12284,1.0251969 -5.07717,2.3433072 -7.32284,3.2220474 -2.39212,0.9275592 -3.46614,2.34330729 -3.46614,4.8330712 0,2.8803152 2.34331,6.1023627 6.24882,6.1023627 1.17165,0 3.31969,-1.6110238 4.83307,-2.6850396 0.19528,0.488189 0.48819,1.0740158 1.12284,1.6598427 0.58582,0.5858268 1.5622,1.0251969 2.73385,1.0251969 z m -9.27559,-1.7574804 c -0.53701,0.488189 -1.0252,0.6834646 -1.70866,0.6834646 -1.26929,0 -2.92914,-1.2692914 -2.92914,-3.6614176 0,-1.65984262 0.68347,-2.440945 2.0504,-3.2708664 0.87874,-0.5370079 1.70866,-1.0740158 2.5874,-1.5622048 z"
           id="path306" />
        <path
           d="m -145.60125,-13.619227 h -8.10394 v 1.464567 c 2.48976,0.390551 2.53858,1.025197 2.00158,2.9291342 -0.97638,3.2708664 -2.44095,7.7133864 -3.17323,9.7637802 -0.48819,-1.26929143 -2.29449,-6.6393705 -3.41733,-10.0078747 -0.63464,-1.9039367 -0.48818,-2.3433077 1.61103,-2.6850397 v -1.464567 h -11.17953 v 1.464567 c 2.19685,0.341732 2.68504,0.927559 3.6126,3.2708665 2.24567,5.8094492 4.24724,11.4236228 6.44409,17.3307099 h 1.85512 c 2.68504,-7.3716541 4.88189,-13.2299222 6.49292,-17.1354343 1.07401,-2.5874021 1.5622,-3.0267721 3.85669,-3.4661421 z"
           id="path308" />
        <path
           d="m -128.80761,2.2469159 c -1.5622,1.3669293 -3.02677,2.001575 -5.02834,2.001575 -3.22205,0 -6.00473,-2.7826774 -6.15118,-8.0062998 4.49133,-0.1952756 10.25196,-0.6346457 10.93543,-0.7811024 1.12283,-0.1952756 1.31811,-0.7322835 1.31811,-1.8062994 0.0488,-3.9543313 -3.07559,-7.8598433 -7.46929,-7.8598433 h -0.0488 c -2.63622,0 -5.1748,1.464567 -7.02992,3.417323 -1.65985,1.7086619 -3.41733,4.8330716 -3.41733,8.9338592 0,5.5165359 3.46615,10.398426 9.61733,10.398426 2.00157,0 5.51653,-1.0740159 8.15275,-5.0771657 z m -7.22519,-14.5968509 c 1.70866,0 2.68504,2.6362202 2.68504,5.0771652 0,0.8787402 -0.2441,1.1228348 -1.0252,1.1228348 -1.8063,0.097638 -3.46614,0.1464567 -5.37008,0.1464567 0.24409,-3.7102365 1.95276,-6.3464567 3.66142,-6.3464567 z"
           id="path310" />
        <path
           d="m -116.5053,-9.1767069 v -5.0771661 c -2.53859,0.878741 -5.4189,1.513386 -8.34803,1.855119 v 1.31811 c 2.09921,0.537008 2.39212,0.781102 2.39212,3.3685041 V 3.0280184 c 0,2.8803151 -0.29291,3.1732285 -2.78268,3.417323 v 1.513386 h 12.25355 v -1.513386 c -3.27087,-0.2440945 -3.51496,-0.4393701 -3.51496,-3.417323 v -9.6661425 c 0.7811,-1.8551182 1.5622,-2.1480316 2.39212,-2.1480316 0.73229,0 1.26929,0.3417323 2.00158,0.976378 0.34173,0.2929134 0.7811,0.3905512 1.41575,0.1464567 1.12283,-0.4393701 2.3433,-1.8062993 2.3433,-3.514961 0,-1.659842 -1.22047,-3.026772 -2.92913,-3.026772 -1.90394,0 -3.56378,2.050394 -5.12599,5.0283471 z"
           id="path312" />
        <path
           d="m -93.121109,-8.0050533 c -0.09764,-0.7322835 -0.634646,-4.1984257 -1.025197,-5.3212607 -1.122835,-0.488189 -2.440945,-0.927559 -4.44252,-0.87874 -5.077164,0 -7.859844,3.173229 -7.859844,6.8834653 0,3.9055121 3.51496,5.7606304 5.90709,7.07874068 2.587399,1.36692922 3.417321,2.63622062 3.417321,4.19842552 0,1.5133859 -1.025197,2.7826773 -2.538583,2.7826773 -2.733858,0 -4.784248,-3.1732285 -5.907088,-6.2488193 l -1.41575,0.2929134 c 0.0488,1.8062993 0.43937,5.1748035 0.73229,6.1023626 0.92756,0.7322836 3.31968,1.6598427 5.90708,1.6598427 3.905515,0 8.250398,-2.2944884 8.250398,-7.1275596 0,-3.7590554 -2.68504,-5.5165358 -6.346458,-7.3228351 -2.19685,-1.0740159 -3.27087,-2.1968506 -3.27087,-3.7590554 0,-1.4157481 1.07402,-2.7826771 2.489768,-2.7826771 1.952756,0 3.368504,1.708661 4.686615,4.9795276 z"
           id="path314" />
        <path
           d="m -72.666043,2.2469159 c -1.562205,1.3669293 -3.026772,2.001575 -5.028347,2.001575 -3.222047,0 -6.004725,-2.7826774 -6.151181,-8.0062998 4.491339,-0.1952756 10.251969,-0.6346457 10.935434,-0.7811024 1.122834,-0.1952756 1.31811,-0.7322835 1.31811,-1.8062994 0.04882,-3.9543313 -3.075591,-7.8598433 -7.469292,-7.8598433 h -0.04882 c -2.636221,0 -5.174803,1.464567 -7.029922,3.417323 -1.659842,1.7086619 -3.417323,4.8330716 -3.417323,8.9338592 0,5.5165359 3.466142,10.398426 9.617324,10.398426 2.001575,0 5.516536,-1.0740159 8.152756,-5.0771657 z M -79.89124,-12.349935 c 1.708661,0 2.685039,2.6362202 2.685039,5.0771652 0,0.8787402 -0.244094,1.1228348 -1.025197,1.1228348 -1.806299,0.097638 -3.466142,0.1464567 -5.370079,0.1464567 0.244095,-3.7102365 1.952756,-6.3464567 3.661418,-6.3464567 z"
           id="path316" />
        <path
           d="M -37.858228,-23.383007 H -48.84248 v 1.513386 c 3.124409,0.195275 4.051969,0.927559 4.296063,2.63622 0.195276,1.513386 0.43937,3.954331 0.43937,8.201576 v 8.5433075 h -0.195275 L -60.217284,-23.383007 h -8.348032 v 1.513386 c 1.952756,0.195275 2.929134,0.781102 3.759055,1.952756 0.781103,1.074016 0.829921,1.952756 0.829921,5.174803 v 10.2031507 c 0,4.05196878 -0.292913,6.5905516 -0.43937,8.1039376 -0.244094,1.8551182 -1.122834,2.6850395 -3.710236,2.8314962 v 1.5622049 h 11.130709 V 6.3965225 c -3.368504,-0.1952756 -4.149606,-1.0251969 -4.393701,-2.8803151 -0.146457,-1.4645671 -0.390551,-4.00314992 -0.390551,-8.0551187 V -15.230251 h 0.146457 l 17.33071,23.6771674 h 2.392126 V -11.031825 c 0,-4.247245 0.292913,-6.68819 0.488189,-8.201576 0.195275,-1.75748 1.025197,-2.489763 3.563779,-2.63622 z"
           id="path318" />
        <path
           d="m -22.822092,-24.017653 c -9.8126,0 -14.450395,8.44567 -14.450395,16.4031509 0,9.2755912 5.516536,16.2078752 14.011024,16.2078752 8.055119,0 14.2063006,-6.2488194 14.2063006,-16.5496075 0,-9.6661426 -5.9070866,-16.0614186 -13.7181116,-16.0614186 z m -0.634646,1.903937 c 4.637795,0 7.274016,5.955906 7.274016,15.426773 0,8.7874022 -2.587402,13.3763789 -6.297638,13.3763789 -5.174804,0 -7.713387,-7.02992172 -7.713387,-15.3291349 0,-7.762205 2.587402,-13.474017 6.68819,-13.474017 z"
           id="path320" />
      </g>
    </g>
  </g>
</svg>
