<svg xmlns="http://www.w3.org/2000/svg" xmlns:xlink="http://www.w3.org/1999/xlink" id="Layer_1" x="0px" y="0px" viewBox="0 0 654.7 125.5" style="enable-background:new 0 0 654.7 125.5;" xml:space="preserve"><style type="text/css">	.st0{fill:#DF00FF;}</style><g>	<g>		<path d="M51.2,114C20.7,114,0,92.5,0,65.1c0-27.2,20.9-48.9,50.2-48.9c13.9,0,23.9,3.3,30.2,6.3v21.8c-6-2.7-15.3-6.3-28.1-6.3   C34.2,38,24,50.6,24,65.1c0,14.7,10.1,27.3,27.1,27.3c3.4,0,7.2-0.5,9.8-1.2V67.9h22.9v39C75,111.4,62.7,114,51.2,114z"></path>		<path d="M103.9,112.2V18h61.8v20.1h-37.8v16.7h32.3v19.1h-32.3V92h39.8v20.1h-63.8V112.2z"></path>		<path d="M220.1,18c22.5,0,38.1,10.9,38.1,32.1c0,13.6-6.9,22.6-17.3,27.2l19,34.9h-25l-15.2-31h-10.5v31h-23.4V18L220.1,18   L220.1,18z M209.2,38.1V62h12c7.2,0,12.7-3.4,12.7-12c0-8.2-5.6-11.9-12.8-11.9L209.2,38.1L209.2,38.1z"></path>		<path d="M277.5,112.2V18h23.9v94.2H277.5z"></path>	</g></g><g>	<path d="M511.3,36.3c-5.3,0-9.1-3.8-9.1-9s3.9-9,9.3-9c2.6,0,4.6,0.9,5.2,1.2v2.2c-1.1-0.6-2.9-1.3-5.2-1.3c-4.1,0-6.9,2.9-6.9,6.8  c0,4,2.8,6.9,6.8,6.9c1.2,0,2.7-0.3,3.4-0.6v-5.2h2.3V35C515.6,35.8,513.4,36.3,511.3,36.3z"></path>	<path d="M520.4,18.7h2.2v13.8c0,1.3,0.4,1.8,1.4,1.8c0.5,0,0.9-0.1,1.1-0.1v1.9c-0.1,0-0.7,0.2-1.6,0.2c-1.8,0-3.1-0.9-3.1-3.4  V18.7z"></path>	<path d="M539.3,30c0,3.6-2.6,6.3-6.2,6.3s-6.2-2.7-6.2-6.3c0-3.6,2.6-6.3,6.2-6.3C536.7,23.7,539.3,26.4,539.3,30z M537.1,30  c0-2.6-1.7-4.4-4.1-4.4c-2.3,0-4,1.8-4,4.4s1.7,4.4,4,4.4C535.4,34.4,537.1,32.6,537.1,30z"></path>	<path d="M542.7,18.7h2.2v6.2c0,0.6-0.1,1-0.1,1l0,0c0.7-1.1,2.2-2.2,4.2-2.2c3.1,0,5.6,2.5,5.6,6.3c0,3.7-2.4,6.3-5.6,6.3  c-2,0-3.6-1.3-4.3-2.6l0,0c0,0,0.1,0.4,0.1,0.9V36h-2.1L542.7,18.7L542.7,18.7z M544.9,30c0,3,2,4.4,3.8,4.4c2.2,0,3.7-1.9,3.7-4.4  c0-2.6-1.5-4.4-3.7-4.4C546.9,25.7,544.9,27,544.9,30z"></path>	<path d="M557.7,24.6c0.7-0.4,2.3-0.9,4.2-0.9c3.4,0,5.1,1.6,5.1,4.7v7.7h-2.1v-1.4c0-0.6,0.1-1,0.1-1l0,0c-0.1,0.3-1.5,2.7-4.2,2.7  c-2.2,0-3.8-1.3-3.8-3.5c0-2.9,2.8-4.4,7.9-3.7v-0.6c0-2.1-1.3-2.8-3.2-2.8c-1.7,0-3.2,0.6-3.9,1L557.7,24.6L557.7,24.6z   M564.7,30.6c-3.9-0.6-5.6,0.4-5.6,2.1c0,1.1,0.8,1.8,2,1.8C563.1,34.5,564.7,32.5,564.7,30.6z"></path>	<path d="M570.8,18.7h2.2v13.8c0,1.3,0.4,1.8,1.4,1.8c0.5,0,0.9-0.1,1.1-0.1v1.9c-0.1,0-0.7,0.2-1.6,0.2c-1.8,0-3.1-0.9-3.1-3.4  V18.7z"></path>	<path d="M503.5,60.9V43.6h10.7v2h-8.4v5.6h7v2h-7v5.9h8.7v2h-11V60.9z"></path>	<path d="M522.7,59.2c1.7,0,2.9-0.6,3.7-1.1v2.1c-0.7,0.4-1.9,1-3.8,1c-3.7,0-6.3-2.7-6.3-6.3s2.6-6.3,6.3-6.3c1.9,0,3,0.6,3.7,0.9  v2.1c-0.8-0.5-2-1.1-3.6-1.1c-2.4,0-4.1,1.8-4.1,4.3C518.6,57.4,520.3,59.2,522.7,59.2z"></path>	<path d="M541,54.9c0,3.6-2.6,6.3-6.2,6.3s-6.2-2.7-6.2-6.3s2.6-6.3,6.2-6.3S541,51.3,541,54.9z M538.8,54.9c0-2.6-1.7-4.4-4.1-4.4  c-2.3,0-4,1.8-4,4.4s1.7,4.4,4,4.4C537.1,59.3,538.8,57.5,538.8,54.9z"></path>	<path d="M547,55.8c-2.1-0.7-3.6-1.6-3.6-3.8c0-2,1.8-3.4,4.3-3.4c1.3,0,2.6,0.3,3.4,0.7v2c-0.9-0.5-2.1-0.8-3.2-0.8  c-1.4,0-2.5,0.5-2.5,1.6c0,1,0.8,1.4,2.5,2c2.6,0.8,3.8,1.8,3.8,3.8c0,2.2-1.8,3.4-4.4,3.4c-1.6,0-3-0.3-3.9-0.8v-2.1  c1.2,0.6,2.7,1,3.9,1c1.3,0,2.4-0.4,2.4-1.6C549.7,56.8,548.8,56.3,547,55.8z"></path>	<path d="M552.8,64.5c0.3,0.1,0.7,0.1,1.3,0.1c1.9,0,2.9-1.6,3.8-3.8l-5-11.9h2.5l1.7,4.4c0.7,1.8,1.4,3.5,2,5.3  c0.6-1.4,1.5-3.8,2.1-5.3l1.7-4.4h2.5l-4.8,11.5c-1.6,4-3,6.2-6.2,6.2c-0.6,0-1.3-0.1-1.5-0.2L552.8,64.5L552.8,64.5z"></path>	<path d="M570.1,55.8c-2.1-0.7-3.6-1.6-3.6-3.8c0-2,1.8-3.4,4.3-3.4c1.3,0,2.6,0.3,3.4,0.7v2c-0.9-0.5-2.1-0.8-3.2-0.8  c-1.4,0-2.5,0.5-2.5,1.6c0,1,0.8,1.4,2.5,2c2.6,0.8,3.8,1.8,3.8,3.8c0,2.2-1.8,3.4-4.4,3.4c-1.6,0-3-0.3-3.9-0.8v-2.1  c1.2,0.6,2.7,1,3.9,1c1.3,0,2.4-0.4,2.4-1.6C572.8,56.8,571.9,56.3,570.1,55.8z"></path>	<path d="M578.6,48.9v-3.6h2.2v3.6h3.6v1.8h-3.6V57c0,1.7,0.8,2.3,1.8,2.3c0.7,0,1.6-0.2,2.3-0.5v2c-0.5,0.3-1.5,0.6-2.7,0.6  c-1.7,0-3.6-0.9-3.6-3.6v-6.9h-2v-1.8h2V48.9z"></path>	<path d="M597.7,54.2c0,0.5,0,0.9,0,1.2h-9l0,0c0.1,2.4,1.7,3.9,4.2,3.9c1.6,0,3.4-0.5,4.4-1.1v2.1c-0.9,0.5-2.6,1-4.5,1  c-3.8,0-6.4-2.6-6.4-6.3c0-3.6,2.6-6.3,5.9-6.3C595.8,48.6,597.7,51.2,597.7,54.2z M592.2,50.5c-2.1,0-3.3,1.6-3.5,3.3h6.8  C595.5,52.1,594.4,50.5,592.2,50.5z"></path>	<path d="M603.1,48.9v1.7c0,0.5-0.1,0.9-0.1,0.9l0,0c0.7-1.7,2.4-2.9,4.4-2.9c1.8,0,3.2,1,3.6,2.8l0,0c0.7-1.5,2.3-2.8,4.2-2.8  c3,0,4.2,1.7,4.2,4.8V61h-2.2v-7.1c0-1.7-0.4-3.1-2.3-3.1c-2.6,0-3.6,2.4-3.6,4.7v5.6h-2.2v-7.2c0-1.6-0.3-3.1-2.2-3.1  c-2.5,0-3.7,2.4-3.7,4.7v5.6H601V49h2.1V48.9z"></path>	<path d="M509.1,68.4c3.8,0,6.1,2,6.1,5.3c0,2.6-1.7,4.3-3.5,4.9l3.9,7.2H513l-3.6-6.8h-3.6v6.8h-2.3V68.4H509.1z M505.8,70.4v6.7  h3.4c2.3,0,3.7-1.3,3.7-3.4c0-2.1-1.4-3.4-3.9-3.4h-3.2V70.4z"></path>	<path d="M528.9,79.1c0,0.5,0,0.9,0,1.2h-9l0,0c0.1,2.4,1.7,3.9,4.2,3.9c1.6,0,3.4-0.5,4.4-1.1v2.1c-0.9,0.5-2.6,1-4.5,1  c-3.8,0-6.4-2.6-6.4-6.3c0-3.6,2.6-6.3,5.9-6.3C527,73.5,528.9,76.1,528.9,79.1z M523.4,75.3c-2.1,0-3.3,1.6-3.5,3.3h6.8  C526.7,76.9,525.5,75.3,523.4,75.3z"></path>	<path d="M534.8,80.6c-2.1-0.7-3.6-1.6-3.6-3.8c0-2,1.8-3.4,4.3-3.4c1.3,0,2.6,0.3,3.4,0.7v2c-0.9-0.5-2.1-0.8-3.2-0.8  c-1.4,0-2.5,0.5-2.5,1.6c0,1,0.8,1.4,2.5,2c2.6,0.8,3.8,1.8,3.8,3.8c0,2.2-1.8,3.4-4.4,3.4c-1.6,0-3-0.3-3.9-0.8v-2.1  c1.2,0.6,2.7,1,3.9,1c1.3,0,2.4-0.4,2.4-1.6C537.5,81.6,536.6,81.2,534.8,80.6z"></path>	<path d="M553.2,79.1c0,0.5,0,0.9,0,1.2h-9l0,0c0.1,2.4,1.7,3.9,4.2,3.9c1.6,0,3.4-0.5,4.4-1.1v2.1c-0.9,0.5-2.6,1-4.5,1  c-3.8,0-6.4-2.6-6.4-6.3c0-3.6,2.6-6.3,5.9-6.3C551.2,73.5,553.2,76.1,553.2,79.1z M547.7,75.3c-2.1,0-3.3,1.6-3.5,3.3h6.8  C551,76.9,549.8,75.3,547.7,75.3z"></path>	<path d="M556.3,74.3c0.7-0.4,2.3-0.9,4.2-0.9c3.4,0,5.1,1.6,5.1,4.7v7.7h-2.1v-1.4c0-0.6,0.1-1,0.1-1l0,0c-0.1,0.3-1.5,2.7-4.2,2.7  c-2.2,0-3.8-1.3-3.8-3.5c0-2.9,2.8-4.4,7.9-3.7v-0.6c0-2.1-1.3-2.8-3.2-2.8c-1.7,0-3.2,0.6-3.9,1L556.3,74.3L556.3,74.3z   M563.4,80.4c-3.9-0.6-5.6,0.4-5.6,2.1c0,1.1,0.8,1.8,2,1.8C561.8,84.3,563.4,82.3,563.4,80.4z"></path>	<path d="M569.4,73.7h2.1v1.7c0,0.5,0,0.8,0,0.9l0,0c0.7-1.7,2-2.9,3.7-2.9c0.3,0,0.6,0,0.7,0.1v2.2c-0.1,0-0.3-0.1-0.6-0.1  c-2.3,0-3.7,2.6-3.7,4.9v5.3h-2.2V73.7z"></path>	<path d="M584.2,84.1c1.7,0,2.9-0.6,3.7-1.1v2.1c-0.7,0.4-1.9,1-3.8,1c-3.7,0-6.3-2.7-6.3-6.3s2.6-6.3,6.3-6.3c1.9,0,3,0.6,3.7,0.9  v2.1c-0.8-0.5-2-1.1-3.6-1.1c-2.4,0-4.1,1.8-4.1,4.3C580.1,82.3,581.8,84.1,584.2,84.1z"></path>	<path d="M591.1,68.4h2.2v6.7c0,0.6-0.1,1-0.1,1.2l0,0c0.5-1.1,2-2.9,4.5-2.9c3,0,4.1,1.8,4.1,4.8v7.6h-2.2v-7.1  c0-1.7-0.3-3.2-2.3-3.2c-2.4,0-4.1,1.9-4.1,4.3v5.9H591L591.1,68.4L591.1,68.4z"></path>	<path d="M503.5,110.7V93.3h2.3v17.4H503.5z"></path>	<path d="M512.4,98.6v1.7c0,0.5-0.1,0.9-0.1,0.9l0,0c0.5-1.1,2.1-2.9,4.6-2.9c3,0,4.1,1.8,4.1,4.8v7.6h-2.2v-7.1  c0-1.7-0.3-3.2-2.3-3.2c-2.4,0-4.1,1.9-4.1,4.3v5.9h-2.2v-12H512.4z"></path>	<path d="M525.6,98.6v-1.4c0-2.6,1.6-4.2,4.4-4.2c0.7,0,1.3,0.1,1.5,0.1v2c-0.2,0-0.7-0.1-1.3-0.1c-1.5,0-2.5,0.9-2.5,2.5v1.2h3.2  v1.8h-3.1v10.2h-2.2v-10.2h-1.8v-1.9H525.6z"></path>	<path d="M533.2,98.6h2.1v1.7c0,0.5,0,0.8,0,0.9l0,0c0.7-1.7,2-2.9,3.7-2.9c0.3,0,0.6,0,0.7,0.1v2.2c-0.1,0-0.3-0.1-0.6-0.1  c-2.3,0-3.7,2.6-3.7,4.9v5.3h-2.2V98.6z"></path>	<path d="M541.9,99.2c0.7-0.4,2.3-0.9,4.2-0.9c3.4,0,5.1,1.6,5.1,4.7v7.7h-2.1v-1.4c0-0.6,0.1-1,0.1-1l0,0c-0.1,0.3-1.5,2.7-4.2,2.7  c-2.2,0-3.8-1.3-3.8-3.5c0-2.9,2.8-4.4,7.9-3.7v-0.6c0-2.1-1.3-2.8-3.2-2.8c-1.7,0-3.2,0.6-3.9,1L541.9,99.2L541.9,99.2z   M549,105.3c-3.9-0.6-5.6,0.4-5.6,2.1c0,1.1,0.8,1.8,2,1.8C547.4,109.2,549,107.2,549,105.3z"></path>	<path d="M557.8,105.5c-2.1-0.7-3.6-1.6-3.6-3.8c0-2,1.8-3.4,4.3-3.4c1.3,0,2.6,0.3,3.4,0.7v2c-0.9-0.5-2.1-0.8-3.2-0.8  c-1.4,0-2.5,0.5-2.5,1.6c0,1,0.8,1.4,2.5,2c2.6,0.8,3.8,1.8,3.8,3.8c0,2.2-1.8,3.4-4.4,3.4c-1.6,0-3-0.3-3.9-0.8v-2.1  c1.2,0.6,2.7,1,3.9,1c1.3,0,2.4-0.4,2.4-1.6C560.5,106.5,559.6,106.1,557.8,105.5z"></path>	<path d="M566.3,98.6V95h2.2v3.6h3.6v1.8h-3.6v6.3c0,1.7,0.8,2.3,1.8,2.3c0.7,0,1.6-0.2,2.3-0.5v2c-0.5,0.3-1.5,0.6-2.7,0.6  c-1.7,0-3.6-0.9-3.6-3.6v-6.9h-2v-2H566.3z"></path>	<path d="M574.9,98.6h2.1v1.7c0,0.5,0,0.8,0,0.9l0,0c0.7-1.7,2-2.9,3.7-2.9c0.3,0,0.6,0,0.7,0.1v2.2c-0.1,0-0.3-0.1-0.6-0.1  c-2.3,0-3.7,2.6-3.7,4.9v5.3h-2.2V98.6z"></path>	<path d="M592.5,110.7V109c0-0.5,0.1-0.9,0.1-0.9l0,0c-0.5,1.1-2,2.9-4.5,2.9c-3,0-4.1-1.8-4.1-4.8v-7.6h2.2v7.1  c0,1.7,0.3,3.2,2.3,3.2c2.3,0,3.9-1.9,3.9-4.3v-6h2.2v12.1H592.5z"></path>	<path d="M604.4,109c1.7,0,2.9-0.6,3.7-1.1v2.1c-0.7,0.4-1.9,1-3.8,1c-3.7,0-6.3-2.7-6.3-6.3s2.6-6.3,6.3-6.3c1.9,0,3,0.6,3.7,0.9  v2.1c-0.8-0.5-2-1.1-3.6-1.1c-2.4,0-4.1,1.8-4.1,4.3C600.2,107.2,601.9,109,604.4,109z"></path>	<path d="M611.7,98.6V95h2.2v3.6h3.6v1.8h-3.6v6.3c0,1.7,0.8,2.3,1.8,2.3c0.7,0,1.6-0.2,2.3-0.5v2c-0.5,0.3-1.5,0.6-2.7,0.6  c-1.7,0-3.6-0.9-3.6-3.6v-6.9h-2v-2H611.7z"></path>	<path d="M628.7,110.7V109c0-0.5,0.1-0.9,0.1-0.9l0,0c-0.5,1.1-2,2.9-4.5,2.9c-3,0-4.1-1.8-4.1-4.8v-7.6h2.2v7.1  c0,1.7,0.3,3.2,2.3,3.2c2.3,0,3.9-1.9,3.9-4.3v-6h2.2v12.1H628.7z"></path>	<path d="M635,98.6h2.1v1.7c0,0.5,0,0.8,0,0.9l0,0c0.7-1.7,2-2.9,3.7-2.9c0.3,0,0.6,0,0.7,0.1v2.2c-0.1,0-0.3-0.1-0.6-0.1  c-2.3,0-3.7,2.6-3.7,4.9v5.3H635V98.6z"></path>	<path d="M654.7,104c0,0.5,0,0.9,0,1.2h-9l0,0c0.1,2.4,1.7,3.9,4.2,3.9c1.6,0,3.4-0.5,4.4-1.1v2.1c-0.9,0.5-2.6,1-4.5,1  c-3.8,0-6.4-2.6-6.4-6.3c0-3.6,2.6-6.3,5.9-6.3C652.8,98.3,654.7,101,654.7,104z M649.2,100.2c-2.1,0-3.3,1.6-3.5,3.3h6.8  C652.5,101.8,651.4,100.2,649.2,100.2z"></path></g><g>	<circle class="st0" cx="400.8" cy="62.1" r="46"></circle>	<g>		<path d="M393.7,0l68,77.7c1.3-5,2-10.2,2-15.6c0-0.5,0-0.9,0-1.4L393.7,0z"></path>		<path d="M399.8,124.6c0.5,0,0.9,0,1.4,0c2.3,0,4.6-0.1,6.8-0.4c3-0.3,5.9-0.9,8.8-1.6l-77.7-67.7L399.8,124.6z"></path>		<path d="M440.4,110.7c3.5-2.8,6.7-6,9.5-9.5L357,17.9L440.4,110.7z"></path>		<path d="M349,27.6c-2.6,3.9-4.7,8.1-6.4,12.6l86.9,77.6L349,27.6z"></path>		<path d="M462.8,51.5c-4.4-26.1-25-46.7-51.1-51.1L462.8,51.5z"></path>		<path d="M339.6,72.6c4.4,26.1,25,46.7,51.1,51.1L339.6,72.6z"></path>		<path d="M379.3,3.5c-4.4,1.7-8.7,3.8-12.6,6.4l90.5,79.8L379.3,3.5z"></path>	</g></g></svg>