<?xml version="1.0" encoding="UTF-8" standalone="no"?>
<svg
   width="213"
   height="47"
   fill="none"
   class="hidden lg:block"
   version="1.1"
   id="svg14"
   sodipodi:docname="GRIIDC-2024.svg"
   inkscape:version="1.2.2 (b0a84865, 2022-12-01)"
   inkscape:export-filename="GRIIDC-2024.png"
   inkscape:export-xdpi="96"
   inkscape:export-ydpi="96"
   xmlns:inkscape="http://www.inkscape.org/namespaces/inkscape"
   xmlns:sodipodi="http://sodipodi.sourceforge.net/DTD/sodipodi-0.dtd"
   xmlns="http://www.w3.org/2000/svg"
   xmlns:svg="http://www.w3.org/2000/svg">
  <defs
     id="defs18" />
  <sodipodi:namedview
     id="namedview16"
     pagecolor="#505050"
     bordercolor="#eeeeee"
     borderopacity="1"
     inkscape:showpageshadow="0"
     inkscape:pageopacity="0"
     inkscape:pagecheckerboard="0"
     inkscape:deskcolor="#505050"
     showgrid="false"
     inkscape:zoom="5.8497653"
     inkscape:cx="72.054173"
     inkscape:cy="32.394462"
     inkscape:window-width="2328"
     inkscape:window-height="1205"
     inkscape:window-x="0"
     inkscape:window-y="25"
     inkscape:window-maximized="0"
     inkscape:current-layer="svg14" />
  <path
     fill="#53aad8"
     d="m 54.36,13.57 0.083,-0.128 c 0.18,-0.284 0.376,-0.573 0.58,-0.865 0.205,-0.292 1.03,-1.199 1.022,-1.538 C 51.895,4.674 43.782,1 35.365,1 c -0.717,0 -1.422,0.033 -2.12,0.095 -0.344,0.03 -0.684,0.072 -1.025,0.12 -0.112,0.016 -0.225,0.032 -0.337,0.05 -0.225,0.033 -0.45,0.069 -0.672,0.108 l -0.397,0.075 a 23.254,23.254 0 0 0 -1.015,0.22 C 29.606,1.715 29.414,1.765 29.221,1.815 L 28.813,1.923 C 28.605,1.982 28.398,2.048 28.191,2.113 27.945,2.19 27.702,2.271 27.459,2.357 A 17.094,17.094 0 0 0 26.47,2.73 c -0.12,0.05 -0.242,0.097 -0.364,0.147 -0.183,0.078 -0.367,0.159 -0.55,0.24 l -0.308,0.141 c -0.196,0.092 -0.388,0.184 -0.58,0.278 -0.071,0.036 -0.181,0.042 -0.216,0.111 -2.875,5.579 -4.54,10.823 -5.999,12.3 -4.314,4.36 -1.702,10.298 -1.335,11.17 0.95,2.262 0.61,4.634 1.386,6.06 2.36,4.333 0.674,6.385 1.21,6.864 1.134,1.012 5.567,3.148 6.33,3.757 0,0 0.015,0.014 0.024,0.019 l 0.382,0.303 c 0.009,0.009 0.018,0.014 0.027,0.022 0.127,0.1 0.245,0.19 0.349,0.27 a 24.128,24.128 0 0 0 6.256,1.48 c 0.05,0.005 0.098,0.008 0.148,0.014 a 26.04,26.04 0 0 0 2.132,0.094 24.634,24.634 0 0 0 2.016,-0.083 24.42,24.42 0 0 0 5.918,-1.235 c 0.595,-0.362 1.125,-0.801 1.202,-1.265 0.13,-0.796 -0.85,-0.837 -0.85,-0.837 0.066,-0.473 1.715,-3.69 0.936,-4.008 a 0.265,0.265 0 0 1 -0.148,-0.356 c 0.193,-0.422 0.323,-0.764 0.67,-0.275 0.047,0.067 0.156,0.042 0.171,-0.039 l 0.459,-2.88 c 0.545,-0.638 1.688,-1.692 1.122,-2.62 -0.37,-0.596 -0.85,-0.554 -1.4,-0.231 -0.584,0.264 -1.072,-0.342 -1.629,0.194 -3.707,0.543 -2.848,1.502 -3.81,4.16 a 0.96,0.96 0 0 1 -0.58,0.576 c -1.91,0.673 -4.279,1.099 -6.262,0.81 -0.347,-0.35 -1.685,-0.952 -2.502,-1.194 a 0.91,0.91 0 0 1 -0.607,-0.59 c -0.22,-0.666 -0.693,-1.362 -1.054,-2.065 -0.02,-0.036 -0.039,-0.075 -0.056,-0.111 -0.048,-0.098 -0.095,-0.192 -0.136,-0.29 -0.385,-0.95 -0.465,-2.146 -1.099,-3.381 -0.521,-2.036 0.409,-4.967 1.436,-6.505 a 0.651,0.651 0 0 0 0.056,-0.64 c -2.03,-4.407 4.64,-6.637 8.23,-6.637 3.657,0.625 -0.523,2.23 5.62,1.407 -0.124,-1.546 -1.018,-1.727 -2.421,-1.655 0.402,-1.382 2.646,-0.044 3.757,-0.311 4.073,-1.221 4.34,2.364 6.599,0.297 l 0.379,1.271 c 0.056,0.19 0.24,0.298 0.444,0.306 0.264,0.011 0.675,0.228 1.181,1.174 -0.482,-0.904 0.596,3.045 1.019,3.907 1.575,1.554 0.95,2.992 2.658,1.913 1.611,-3.115 -3.47,-7.85 -2.33,-11.243 l 0.01,0.005 z"
     id="path2" />
  <path
     fill="#53aad8"
     d="m 58.268,31 c 0.249,-0.615 0.354,-1.619 0.732,-2.2 -1.21,-0.428 -3.39,-1.193 -4.249,-0.557 -0.553,-0.114 -1.575,-0.511 -1.876,0.17 -1.234,-0.087 -3.997,0.984 -2.382,2.167 0.336,-0.22 0.997,-0.711 1.456,-0.558 0.326,-0.95 1.375,-1.183 2.384,-1.053 0.418,0.534 -0.538,0.213 -0.782,0.298 -0.236,1.292 1.788,-0.013 2.382,0.854 0.627,-0.423 1.883,0.68 2.338,0.874 z"
     id="path4" />
  <path
     fill="#3975b7"
     d="M 43.568,10.986 C 42.955,10.411 42.449,10.411 42.449,10.411 H 35.63 c -0.086,0 -0.168,-0.008 -0.248,-0.02 A 3.258,3.258 0 0 1 35.219,10.364 C 34.524,10.223 33.975,9.733 33.813,9.108 V 9.102 h -0.006 0.006 A 1.58,1.58 0 0 1 33.761,8.72 c 0,-0.935 0.84,-1.69 1.872,-1.69 h 2.94 c 0.741,-1.356 1.523,-2.72 1.486,-2.92 -1.67,0.009 -4.312,0.47 -4.236,-1.24 0.055,-1.242 1.87,-1.413 5.878,-1.217 A 27.287,27.287 0 0 0 33.509,1.094 c -5.225,0.46 -10.037,2.156 -13.803,5.08 -0.092,0.036 0.515,0.435 0.527,0.438 l 0.83,0.127 c 0.825,0.188 0.773,3.863 -0.26,3.863 L 17.1,12.057 c 0,0 0.052,2.18 0.052,3.113 0,0.308 1.253,2.779 -1.202,5.275 -2.455,2.495 0.567,11.981 0.993,12.244 3.703,2.308 1.462,7.111 3.442,8.133 -0.107,0 1.217,0.844 1.765,1.173 -0.033,0.072 3.942,1.94 3.942,1.94 0.214,0.083 0.416,0.09 0.294,0 h 7.757 c 1.036,0 1.872,-0.709 1.872,-1.58 0,-0.872 -0.84,-1.58 -1.872,-1.58 h -2.05 l -6.421,0.019 c -0.674,0 -1.343,0 -1.977,0.003 -0.723,-0.263 -1.238,-0.897 -1.238,-1.652 0,-0.82 0.604,-1.506 1.425,-1.719 h -0.22 c -0.166,-0.827 -0.335,-1.754 -0.82,-2.664 -0.158,-0.3 -0.296,-0.54 -0.422,-0.745 l 1.33,-0.005 c -1.027,-0.009 -1.854,-0.761 -1.854,-1.685 0,-0.925 0.84,-1.688 1.873,-1.688 h 0.095 l -0.092,-0.006 v -0.005 c 1.005,-0.03 1.808,-0.77 1.808,-1.683 0,-0.913 -0.84,-1.688 -1.873,-1.688 h -0.634 c -0.144,-0.462 -0.255,-0.777 -0.252,-0.783 0,-0.29 -0.07,-0.351 -0.064,-0.634 -0.092,-0.5 -0.604,-0.174 -0.509,-0.7 0.04,-0.18 -0.827,-0.398 -0.46,-0.722 0.04,-0.033 0.019,-0.105 0.056,-0.138 0.021,-0.017 1.18,-0.147 2.314,-0.269 a 1.755,1.755 0 0 1 -1.113,-0.636 1.679,1.679 0 0 1 -0.37,-1.057 c 0,-0.443 0.186,-0.841 0.484,-1.146 0.242,-0.249 0.56,-0.429 0.919,-0.514 h 2.513 c 0.172,0 0.337,-0.025 0.497,-0.064 0.86,-0.2 1.498,-0.888 1.498,-1.716 0,-0.827 -0.695,-1.585 -1.615,-1.743 v -0.003 h -0.043 a 2.281,2.281 0 0 0 -0.34,-0.03 h -0.052 c -0.886,-0.014 -1.538,-0.83 -1.538,-1.66 0,-0.936 0.781,-1.589 1.817,-1.589 l 2.05,-0.016 10.592,-0.089 h 2.67 c 1.035,0 1.872,-0.758 1.872,-1.69 0,-0.407 -0.141,-0.797 -0.432,-1.069 v -0.003 z"
     id="path6" />
  <path
     fill="#2e3e90"
     d="M 34.844,0 C 30.239,0 25.709,1.196 21.797,3.41 h -4.67 c -1.016,0 -1.836,0.77 -1.836,1.716 0,0.946 0.823,1.715 1.835,1.715 h 1.12 l -0.002,0.003 c 0.03,0.005 0.06,0.017 0.09,0.022 0.012,0 0.027,0 0.039,0.003 l -0.006,0.006 c 0.808,0.19 1.526,0.87 1.526,1.659 0,0.934 -0.823,1.692 -1.836,1.692 h -6.672 c -1.015,0 -1.835,0.77 -1.835,1.716 0,0.946 0.823,1.715 1.835,1.715 h 2.253 c 1.016,0 1.836,0.769 1.836,1.715 0,0.946 -0.823,1.715 -1.836,1.715 H 6.561 c -0.018,0 -0.036,0.006 -0.054,0.006 -0.989,0.028 -1.782,0.78 -1.782,1.71 0,0.928 0.823,1.714 1.836,1.714 h 4.094 l 0.694,0.012 c 1.016,0 1.836,0.769 1.836,1.715 0,0.946 -0.823,1.715 -1.836,1.715 H 10.46 v 0.006 H 1.841 C 0.823,23.965 0,24.734 0,25.685 c 0,0.814 0.607,1.491 1.418,1.67 H 12.06 c 0.1,0 0.196,0.015 0.292,0.029 h 0.006 c 0.042,0.005 0.084,0.014 0.126,0.022 0.811,0.18 1.415,0.854 1.415,1.665 0,0.949 -0.823,1.715 -1.836,1.715 H 5.062 c -1.112,0 -2.013,0.77 -2.013,1.715 0,0.946 0.901,1.715 2.013,1.715 h 11.007 c 1.015,0 1.835,0.77 1.835,1.715 v 0.073 c 0,0.95 -0.823,1.716 -1.835,1.716 h -5.047 c -0.736,0.221 -1.274,0.861 -1.274,1.625 0,0.949 0.823,1.715 1.836,1.715 h 6.56 C 22.754,44.892 28.663,47 34.85,47 48.72,47 60,36.456 60,23.499 60,10.54 48.714,0 34.844,0 Z m 0,45.703 c -5.281,0 -10.343,-1.63 -14.483,-4.615 -0.718,-0.505 -1.33,-0.862 -1.33,-1.645 0,-0.949 0.823,-1.718 1.835,-1.72 h 4.299 c 1.015,0 1.835,-0.784 1.835,-1.75 0,-0.965 -0.823,-1.748 -1.835,-1.748 h -6.302 c 0,0 0,-0.006 -0.003,-0.009 h 0.36 c -0.13,0 -0.255,-0.011 -0.376,-0.033 -0.057,-0.009 -0.11,-0.029 -0.165,-0.042 -0.06,-0.017 -0.123,-0.029 -0.183,-0.051 -0.054,-0.02 -0.105,-0.045 -0.156,-0.067 -0.054,-0.026 -0.108,-0.048 -0.163,-0.076 A 2.287,2.287 0 0 1 18.039,33.86 C 17.991,33.826 17.94,33.792 17.895,33.756 a 1.943,1.943 0 0 1 -0.114,-0.104 c -0.045,-0.042 -0.084,-0.087 -0.123,-0.132 -0.03,-0.036 -0.063,-0.073 -0.09,-0.112 a 1.508,1.508 0 0 1 -0.1,-0.163 c -0.02,-0.04 -0.044,-0.076 -0.063,-0.115 A 1.484,1.484 0 0 1 17.333,32.928 C 17.324,32.894 17.309,32.86 17.3,32.824 a 1.398,1.398 0 0 1 0.006,-0.685 c 0.006,-0.023 0.018,-0.045 0.024,-0.067 0.027,-0.093 0.06,-0.186 0.103,-0.27 0.009,-0.017 0.02,-0.03 0.027,-0.045 a 1.86,1.86 0 0 1 0.17,-0.258 l 0.028,-0.03 a 1.69,1.69 0 0 1 0.231,-0.226 c 0.34,-0.275 0.787,-0.451 1.286,-0.46 h -0.09 c 0.88,-0.129 1.559,-0.834 1.559,-1.693 0,-0.859 -0.64,-1.532 -1.49,-1.687 h 3.433 c 1.019,0 1.842,-0.769 1.842,-1.72 0,-0.952 -0.823,-1.721 -1.841,-1.721 h -5.15 c -1.015,0 -1.835,-0.772 -1.835,-1.724 0,-0.951 0.823,-1.723 1.836,-1.723 h 4.971 c 1.016,0 1.836,-0.77 1.836,-1.716 0,-0.946 -0.823,-1.715 -1.836,-1.715 h -2.7 c -1.016,0 -1.836,-0.769 -1.836,-1.715 0,-0.946 0.823,-1.715 1.836,-1.715 h 7.525 c 1.015,0 1.835,-0.77 1.835,-1.715 0,-0.946 -0.823,-1.715 -1.835,-1.715 h -2.29 V 10.215 C 23.975,10.17 23.2,9.426 23.2,8.508 c 0,-0.558 0.292,-1.05 0.733,-1.364 0.307,-0.219 0.688,-0.35 1.103,-0.35 L 38.68,6.841 c 1.016,0 1.836,-0.77 1.836,-1.715 0,-0.946 -0.823,-1.715 -1.836,-1.715 H 24.708 c 3.134,-1.387 6.558,-2.108 10.127,-2.108 13.1,0 23.76,9.96 23.76,22.201 0,12.242 -10.66,22.202 -23.76,22.202 z"
     id="path8" />
  <path
     fill="#2e3e90"
     d="M 15,4.963 C 15,4.02 14.357,3.233 13.492,3 H 10.507 A 2.03,2.03 0 0 0 9,4.963 C 9,4.977 9.003,4.987 9.003,5 9.003,5.013 9,5.023 9,5.037 9,5.98 9.643,6.767 10.508,7 h 2.985 A 2.03,2.03 0 0 0 15,5.037 C 15,5.023 14.997,5.013 14.997,5 14.997,4.987 15,4.977 15,4.963 Z M 3,12 c 0,1.106 0.82,2 1.83,2 H 8.17 C 9.183,14 10,13.103 10,12 10,10.897 9.18,10 8.17,10 H 4.83 C 3.82,10 3,10.897 3,12 Z M 93,27.708 C 90.612,30.772 85.902,33 79.42,33 69.835,33 64,28.548 64,21 64,13.452 69.834,9 79.42,9 c 5.87,0 10.031,2.096 12.42,4.29 l -4.265,2.936 c -2.081,-1.937 -4.505,-2.838 -8.122,-2.838 -6.245,0 -9.895,2.58 -9.895,7.615 0,5.034 3.753,7.612 10.1,7.612 3.58,0 6.517,-0.742 8.222,-2.678 v -2.195 h -9.007 v -4.194 h 14.124 v 8.16 H 93 Z m 26.347,4.292 -7,-7.822 h -8.809 V 32 H 98 V 9 h 16.822 c 5.954,0 10.447,2.597 10.447,7.59 0,3.911 -2.752,6.343 -6.792,7.23 L 126,32 Z m -4.839,-12.157 c 2.924,0 5.084,-0.659 5.084,-3.221 0,-2.563 -2.16,-3.221 -5.084,-3.221 h -11.006 v 6.44 h 11.006 z M 130,32 V 9 h 5 v 23 z m 12,0 V 9 h 5 V 32 Z M 181,20.499 C 181,27.662 175.332,32 166.476,32 H 154 V 9 h 12.476 C 175.329,9 181,13.338 181,20.501 V 20.5 Z m -5.467,0 c 0,-4.732 -3.823,-7.032 -9.459,-7.032 h -6.709 V 27.53 h 6.709 c 5.636,0 9.459,-2.3 9.459,-7.032 z m 32.47,4.371 4.997,2.357 C 210.74,30.42 206.12,33 199.855,33 190.852,33 185,28.517 185,21 c 0,-7.517 5.852,-12 15.096,-12 6.024,0 10.644,2.614 12.836,5.742 l -5.033,2.357 c -1.71,-2.516 -4.312,-3.647 -7.872,-3.647 -5.683,0 -9.448,2.58 -9.448,7.548 0,4.967 3.765,7.548 9.448,7.548 3.56,0 6.197,-1.097 7.976,-3.678 z"
     id="path10" />
  <path
     fill="#3975b7"
     d="m 69.471,41.448 a 4.154,4.154 0 0 1 -1.343,0.483 C 67.872,41.977 67.603,42 67.324,42 A 3.86,3.86 0 0 1 65.959,41.772 3.078,3.078 0 0 1 64.911,41.142 2.833,2.833 0 0 1 64,39.006 c 0,-0.425 0.081,-0.795 0.243,-1.16 0.162,-0.364 0.39,-0.685 0.681,-0.956 a 3.233,3.233 0 0 1 1.048,-0.651 3.62,3.62 0 0 1 1.333,-0.24 c 0.282,0 0.535,0.017 0.765,0.055 0.23,0.035 0.441,0.087 0.636,0.153 0.194,0.067 0.38,0.148 0.554,0.246 0.176,0.098 0.344,0.208 0.51,0.335 L 69.056,37.56 A 4.454,4.454 0 0 0 68.68,37.303 2.397,2.397 0 0 0 68.278,37.109 2.566,2.566 0 0 0 67.814,36.985 3.28,3.28 0 0 0 67.26,36.939 c -0.292,0 -0.568,0.055 -0.821,0.162 a 2.071,2.071 0 0 0 -1.255,1.9 c 0,0.297 0.052,0.575 0.155,0.83 0.104,0.254 0.253,0.474 0.445,0.659 0.191,0.185 0.421,0.33 0.687,0.436 0.266,0.104 0.565,0.16 0.892,0.16 0.305,0 0.59,-0.041 0.856,-0.122 0.266,-0.081 0.497,-0.188 0.691,-0.321 V 39.55 H 67.27 V 38.662 H 70 V 41.1 a 5.272,5.272 0 0 1 -0.525,0.35 L 69.471,41.447 Z M 76,39.353 c 0,0.438 -0.06,0.823 -0.18,1.156 a 2.245,2.245 0 0 1 -0.505,0.83 1.99,1.99 0 0 1 -0.789,0.496 3.12,3.12 0 0 1 -1.04,0.165 c -0.383,0 -0.72,-0.056 -1.024,-0.165 A 2.052,2.052 0 0 1 71.676,41.341 2.215,2.215 0 0 1 71.174,40.526 3.36,3.36 0 0 1 71,39.4 v -3.397 h 1.016 v 3.356 c 0,0.55 0.133,0.97 0.393,1.256 0.263,0.285 0.626,0.43 1.09,0.43 0.463,0 0.818,-0.14 1.08,-0.416 0.263,-0.276 0.393,-0.685 0.393,-1.232 V 36 h 1.02 v 3.347 z M 78,36 h 0.997 v 5.05 H 82 V 42 h -4 z m 9,0.954 h -3.06 v 1.653 h 2.714 v 0.95 H 83.94 V 42 H 83 v -6 h 4 z m 4.443,0.956 c 0.043,0.084 0.121,0.16 0.236,0.232 0.114,0.073 0.271,0.14 0.47,0.201 0.2,0.061 0.456,0.125 0.767,0.192 0.34,0.078 0.64,0.163 0.903,0.259 0.261,0.096 0.48,0.209 0.654,0.346 0.174,0.136 0.305,0.293 0.393,0.473 C 94.954,39.793 95,40.006 95,40.25 A 1.552,1.552 0 0 1 94.359,41.54 2.182,2.182 0 0 1 93.632,41.884 3.484,3.484 0 0 1 92.7,42 c -0.501,0 -0.975,-0.076 -1.434,-0.23 A 4.052,4.052 0 0 1 90,41.067 l 0.684,-0.733 c 0.314,0.244 0.631,0.433 0.952,0.561 0.32,0.131 0.684,0.195 1.09,0.195 0.35,0 0.631,-0.067 0.838,-0.2 0.206,-0.134 0.31,-0.314 0.31,-0.541 0,-0.105 -0.02,-0.2 -0.059,-0.282 a 0.58,0.58 0 0 0 -0.222,-0.23 1.912,1.912 0 0 0 -0.445,-0.195 8.503,8.503 0 0 0 -0.736,-0.191 8.924,8.924 0 0 1 -0.923,-0.242 c -0.269,-0.09 -0.494,-0.2 -0.678,-0.334 a 1.332,1.332 0 0 1 -0.415,-0.483 1.526,1.526 0 0 1 -0.144,-0.691 c 0,-0.256 0.056,-0.489 0.164,-0.695 0.11,-0.21 0.261,-0.387 0.454,-0.538 0.194,-0.151 0.426,-0.265 0.694,-0.346 C 91.836,36.041 92.13,36 92.451,36 c 0.474,0 0.9,0.061 1.28,0.186 0.379,0.125 0.736,0.308 1.066,0.547 l -0.608,0.776 A 4.038,4.038 0 0 0 93.312,37.064 2.639,2.639 0 0 0 92.435,36.91 c -0.334,0 -0.593,0.067 -0.776,0.203 -0.187,0.137 -0.278,0.303 -0.278,0.498 0,0.116 0.023,0.218 0.065,0.299 z m 9.112,3.489 a 3.024,3.024 0 0 1 -0.495,0.323 c -0.177,0.093 -0.37,0.16 -0.581,0.209 C 99.269,41.977 99.034,42 98.779,42 A 2.654,2.654 0 0 1 96.791,41.135 2.934,2.934 0 0 1 96.211,40.187 3.233,3.233 0 0 1 96,39.01 c 0,-0.42 0.07,-0.804 0.207,-1.168 0.139,-0.364 0.332,-0.685 0.581,-0.957 0.25,-0.275 0.548,-0.489 0.89,-0.648 A 2.725,2.725 0 0 1 98.818,36 c 0.249,0 0.478,0.023 0.683,0.066 a 2.584,2.584 0 0 1 1.043,0.475 c 0.146,0.11 0.285,0.231 0.415,0.364 l -0.617,0.755 a 3.1,3.1 0 0 0 -0.694,-0.524 1.724,1.724 0 0 0 -0.835,-0.2 c -0.26,0 -0.501,0.056 -0.722,0.163 a 1.815,1.815 0 0 0 -0.575,0.44 c -0.16,0.184 -0.288,0.401 -0.377,0.65 a 2.385,2.385 0 0 0 -0.132,0.804 c 0,0.286 0.044,0.558 0.132,0.81 0.089,0.251 0.213,0.47 0.377,0.659 0.16,0.188 0.353,0.335 0.575,0.442 0.22,0.107 0.462,0.162 0.722,0.162 0.334,0 0.619,-0.067 0.86,-0.202 0.24,-0.136 0.475,-0.319 0.71,-0.553 L 101,40.974 a 3.719,3.719 0 0 1 -0.442,0.427 z M 103,36 v 6 h -1 v -6 z m 5.962,0.954 h -3.028 v 1.542 h 2.684 v 0.95 h -2.684 v 1.603 H 109 V 42 h -4 v -6 h 3.962 z M 114.799,36 H 116 v 6 h -1.01 l -3.789,-4.27 V 42 H 110 v -6 h 1.118 l 3.681,4.15 V 36 Z m 6.756,5.399 a 3.024,3.024 0 0 1 -0.495,0.323 2.455,2.455 0 0 1 -0.581,0.209 c -0.21,0.046 -0.445,0.069 -0.7,0.069 A 2.657,2.657 0 0 1 117.791,41.135 2.931,2.931 0 0 1 117.21,40.187 3.236,3.236 0 0 1 117,39.01 c 0,-0.42 0.069,-0.804 0.207,-1.168 0.139,-0.364 0.332,-0.685 0.581,-0.957 0.249,-0.272 0.548,-0.489 0.891,-0.648 A 2.723,2.723 0 0 1 119.818,36 c 0.249,0 0.478,0.023 0.683,0.066 a 2.571,2.571 0 0 1 1.043,0.475 c 0.146,0.11 0.285,0.231 0.415,0.364 l -0.617,0.755 a 3.106,3.106 0 0 0 -0.694,-0.524 1.724,1.724 0 0 0 -0.835,-0.2 c -0.26,0 -0.501,0.056 -0.722,0.163 a 1.819,1.819 0 0 0 -0.576,0.44 c -0.16,0.184 -0.287,0.401 -0.376,0.65 a 2.397,2.397 0 0 0 -0.132,0.804 c 0,0.286 0.044,0.558 0.132,0.81 0.089,0.251 0.213,0.47 0.376,0.659 0.161,0.188 0.354,0.335 0.576,0.442 0.221,0.107 0.462,0.162 0.722,0.162 0.334,0 0.619,-0.067 0.86,-0.202 0.24,-0.136 0.475,-0.319 0.71,-0.553 L 122,40.974 a 3.719,3.719 0 0 1 -0.442,0.427 z m 6.398,-4.445 h -3.785 v 1.542 h 3.355 v 0.95 h -3.355 v 1.603 H 128 V 42 h -5 v -6 h 4.953 z m 8.792,3.226 a 2.824,2.824 0 0 1 -0.725,0.956 c -0.313,0.27 -0.685,0.481 -1.118,0.634 -0.434,0.155 -0.91,0.23 -1.427,0.23 H 131 v -6 h 2.475 c 0.517,0 0.993,0.075 1.427,0.227 a 3.45,3.45 0 0 1 1.118,0.631 2.752,2.752 0 0 1 0.98,2.135 c 0,0.424 -0.084,0.819 -0.255,1.186 z m -1.135,-1.992 a 1.89,1.89 0 0 0 -0.467,-0.648 2.194,2.194 0 0 0 -0.728,-0.43 2.744,2.744 0 0 0 -0.951,-0.156 h -1.312 v 4.095 h 1.312 c 0.35,0 0.665,-0.05 0.951,-0.15 0.285,-0.1 0.527,-0.241 0.728,-0.42 0.198,-0.183 0.356,-0.398 0.467,-0.646 0.111,-0.252 0.168,-0.524 0.168,-0.822 0,-0.3 -0.054,-0.572 -0.168,-0.823 z M 143,42 h -1.068 l -0.585,-1.44 h -2.72 L 138.036,42 H 137 l 2.532,-6 h 0.936 z m -3.017,-4.75 -0.987,2.384 h 1.982 z m 6.063,4.75 h -1.092 V 36.978 H 143 V 36 h 5 v 0.978 h -1.954 z M 153,42 h -1.068 l -0.585,-1.44 h -2.72 L 148.036,42 H 147 l 2.532,-6 h 0.936 z m -3.017,-4.75 -0.987,2.384 h 1.982 z m 10.795,4.75 -1.451,-2.093 h -1.299 V 42 H 157 v -6 h 2.625 c 0.337,0 0.641,0.045 0.912,0.132 0.271,0.09 0.504,0.215 0.691,0.376 0.188,0.162 0.334,0.362 0.432,0.601 0.102,0.236 0.152,0.502 0.152,0.792 0,0.252 -0.035,0.476 -0.104,0.673 a 1.705,1.705 0 0 1 -0.73,0.909 c -0.17,0.104 -0.361,0.188 -0.569,0.245 L 162,42 Z m -0.336,-4.795 c -0.215,-0.17 -0.516,-0.254 -0.903,-0.254 h -1.511 v 2.024 h 1.52 c 0.372,0 0.667,-0.093 0.888,-0.275 0.22,-0.183 0.327,-0.43 0.327,-0.742 0,-0.332 -0.107,-0.583 -0.321,-0.753 z m 6.52,-0.251 h -3.028 v 1.542 h 2.684 v 0.95 h -2.684 v 1.603 H 167 V 42 h -4 v -6 h 3.962 z m 5.879,1.955 a 1.803,1.803 0 0 1 -1.103,1.031 2.38,2.38 0 0 1 -0.807,0.132 h -1.03 V 42 H 169 v -6 h 2.038 c 0.3,0 0.572,0.048 0.815,0.14 a 1.72,1.72 0 0 1 1.011,1.04 c 0.092,0.246 0.136,0.524 0.136,0.832 a 2.3,2.3 0 0 1 -0.162,0.89 z m -1.064,-1.683 c -0.201,-0.18 -0.473,-0.272 -0.815,-0.272 h -1.058 v 2.167 h 1.058 c 0.345,0 0.619,-0.099 0.818,-0.296 0.198,-0.197 0.3,-0.46 0.3,-0.786 0,-0.362 -0.102,-0.634 -0.303,-0.813 z m 8.003,2.926 a 2.878,2.878 0 0 1 -0.624,0.957 2.956,2.956 0 0 1 -0.952,0.651 c -0.366,0.159 -0.772,0.24 -1.213,0.24 a 3.01,3.01 0 0 1 -1.212,-0.237 2.909,2.909 0 0 1 -0.943,-0.642 2.953,2.953 0 0 1 -0.615,-0.954 3.054,3.054 0 0 1 -0.221,-1.16 c 0,-0.407 0.073,-0.795 0.221,-1.16 a 2.86,2.86 0 0 1 0.623,-0.956 c 0.267,-0.275 0.586,-0.492 0.952,-0.651 0.366,-0.159 0.769,-0.24 1.213,-0.24 a 3,3 0 0 1 1.212,0.237 c 0.366,0.156 0.679,0.373 0.943,0.642 0.262,0.272 0.468,0.59 0.616,0.954 0.147,0.365 0.22,0.752 0.22,1.16 0,0.407 -0.073,0.795 -0.22,1.16 z m -0.981,-1.943 a 2.043,2.043 0 0 0 -0.401,-0.66 1.882,1.882 0 0 0 -1.404,-0.612 c -0.284,0 -0.545,0.055 -0.783,0.162 a 1.823,1.823 0 0 0 -0.609,0.44 2.062,2.062 0 0 0 -0.398,0.653 2.223,2.223 0 0 0 -0.142,0.8 c 0,0.284 0.046,0.55 0.142,0.802 0.096,0.251 0.229,0.471 0.4,0.659 a 1.87,1.87 0 0 0 1.405,0.613 c 0.284,0 0.545,-0.055 0.783,-0.162 0.238,-0.107 0.441,-0.254 0.609,-0.44 0.169,-0.184 0.302,-0.404 0.398,-0.653 0.096,-0.252 0.142,-0.517 0.142,-0.8 0,-0.284 -0.046,-0.55 -0.142,-0.802 z m 3.355,-0.299 c 0.034,0.084 0.097,0.16 0.189,0.232 0.092,0.073 0.217,0.14 0.377,0.201 0.16,0.061 0.364,0.125 0.612,0.192 0.273,0.078 0.514,0.163 0.723,0.259 0.209,0.096 0.385,0.209 0.524,0.346 0.138,0.136 0.243,0.293 0.314,0.473 0.07,0.18 0.107,0.393 0.107,0.637 0,0.28 -0.045,0.526 -0.136,0.741 a 1.567,1.567 0 0 1 -0.377,0.55 1.62,1.62 0 0 1 -0.581,0.343 A 2.267,2.267 0 0 1 183.16,42 c -0.401,0 -0.78,-0.076 -1.147,-0.23 A 3.133,3.133 0 0 1 181,41.067 l 0.547,-0.733 c 0.251,0.244 0.505,0.433 0.762,0.561 0.256,0.131 0.547,0.195 0.872,0.195 0.28,0 0.505,-0.067 0.67,-0.2 a 0.66,0.66 0 0 0 0.248,-0.541 c 0,-0.105 -0.015,-0.2 -0.047,-0.282 a 0.538,0.538 0 0 0 -0.178,-0.23 1.39,1.39 0 0 0 -0.356,-0.195 5.743,5.743 0 0 0 -0.589,-0.191 6.07,6.07 0 0 1 -0.738,-0.242 c -0.215,-0.09 -0.395,-0.2 -0.542,-0.334 a 1.302,1.302 0 0 1 -0.332,-0.483 1.853,1.853 0 0 1 -0.115,-0.691 c 0,-0.256 0.044,-0.489 0.13,-0.695 0.089,-0.21 0.21,-0.387 0.364,-0.538 0.155,-0.151 0.341,-0.265 0.555,-0.346 0.218,-0.081 0.453,-0.122 0.71,-0.122 0.379,0 0.72,0.061 1.023,0.186 0.304,0.125 0.589,0.308 0.854,0.547 l -0.487,0.776 a 3.04,3.04 0 0 0 -0.702,-0.445 1.738,1.738 0 0 0 -0.701,-0.154 c -0.267,0 -0.474,0.067 -0.621,0.203 a 0.648,0.648 0 0 0 -0.222,0.498 c 0,0.116 0.018,0.218 0.052,0.299 z M 188,36 v 6 h -1 v -6 z m 3.436,6 h -0.872 V 36.978 H 189 V 36 h 4 v 0.978 h -1.564 z m 8.344,-1.848 a 2.878,2.878 0 0 1 -0.624,0.957 2.956,2.956 0 0 1 -0.952,0.651 c -0.365,0.159 -0.772,0.24 -1.213,0.24 a 3.01,3.01 0 0 1 -1.212,-0.237 2.909,2.909 0 0 1 -0.943,-0.642 2.953,2.953 0 0 1 -0.615,-0.954 3.054,3.054 0 0 1 -0.221,-1.16 c 0,-0.407 0.073,-0.795 0.221,-1.16 a 2.86,2.86 0 0 1 0.623,-0.956 c 0.267,-0.275 0.586,-0.492 0.952,-0.651 0.366,-0.159 0.769,-0.24 1.213,-0.24 a 3,3 0 0 1 1.212,0.237 c 0.366,0.156 0.679,0.373 0.943,0.642 0.262,0.272 0.468,0.59 0.616,0.954 0.147,0.365 0.22,0.752 0.22,1.16 0,0.407 -0.073,0.795 -0.22,1.16 z m -0.981,-1.943 a 2.043,2.043 0 0 0 -0.401,-0.66 1.882,1.882 0 0 0 -1.404,-0.612 c -0.284,0 -0.545,0.055 -0.783,0.162 a 1.823,1.823 0 0 0 -0.609,0.44 2.062,2.062 0 0 0 -0.398,0.653 2.223,2.223 0 0 0 -0.142,0.8 c 0,0.284 0.046,0.55 0.142,0.802 0.096,0.251 0.229,0.471 0.4,0.659 a 1.87,1.87 0 0 0 1.405,0.613 c 0.284,0 0.545,-0.055 0.783,-0.162 0.238,-0.107 0.441,-0.254 0.609,-0.44 0.169,-0.184 0.302,-0.404 0.398,-0.653 0.096,-0.252 0.142,-0.517 0.142,-0.8 0,-0.284 -0.046,-0.55 -0.142,-0.802 z m 5.979,3.791 -1.451,-2.093 h -1.299 V 42 H 201 v -6 h 2.625 c 0.337,0 0.641,0.045 0.912,0.132 0.271,0.09 0.504,0.215 0.691,0.376 0.188,0.162 0.334,0.362 0.432,0.601 0.102,0.236 0.152,0.502 0.152,0.792 0,0.252 -0.035,0.476 -0.104,0.673 a 1.705,1.705 0 0 1 -0.73,0.909 c -0.17,0.104 -0.361,0.188 -0.569,0.245 L 206,42 Z m -0.336,-4.795 c -0.215,-0.17 -0.516,-0.254 -0.903,-0.254 h -1.511 v 2.024 h 1.52 c 0.372,0 0.667,-0.093 0.888,-0.275 0.22,-0.183 0.327,-0.43 0.327,-0.742 0,-0.332 -0.107,-0.583 -0.321,-0.753 z M 209.954,42 h -0.911 V 39.635 L 207,36 h 1.067 l 1.442,2.658 L 210.964,36 H 212 l -2.043,3.608 V 42 Z"
     id="path12" />
</svg>
