<?xml version="1.0" encoding="utf-8"?>
<!-- Generator: Adobe Illustrator 17.0.0, SVG Export Plug-In . SVG Version: 6.00 Build 0)  -->
<!DOCTYPE svg PUBLIC "-//W3C//DTD SVG 1.1//EN" "http://www.w3.org/Graphics/SVG/1.1/DTD/svg11.dtd">
<svg version="1.1" id="Layer_1" xmlns="http://www.w3.org/2000/svg" xmlns:xlink="http://www.w3.org/1999/xlink" x="0px" y="0px"
	 width="314.967px" height="109.196px" viewBox="0 0 314.967 109.196" enable-background="new 0 0 314.967 109.196"
	 xml:space="preserve">
<path fill="#485156" d="M132.252,19.926h14.55v50.076h-14.55V19.926z"/>
<path fill="#485156" d="M175.068,70.814c-2.707,0-5.662-0.202-8.865-0.608c-3.204-0.408-6.317-0.992-9.338-1.761V56.672
	c2.977,0.812,5.875,1.445,8.695,1.895s5.38,0.676,7.681,0.676c2.571,0,4.398-0.28,5.482-0.846c1.084-0.563,1.623-1.5,1.623-2.809
	c0-1.487-0.654-2.526-1.961-3.113c-1.309-0.586-3.204-1.105-5.686-1.555c-2.346-0.406-4.466-0.982-6.359-1.727
	c-1.895-0.744-3.521-1.747-4.874-3.011c-1.351-1.262-2.401-2.851-3.145-4.77c-0.746-1.917-1.118-4.252-1.118-7.003
	c0-4.783,1.77-8.503,5.312-11.168c3.542-2.66,8.469-3.992,14.786-3.992c1.128,0,2.244,0.034,3.351,0.102
	c1.105,0.068,2.267,0.181,3.485,0.338c1.217,0.159,2.526,0.374,3.924,0.644c1.398,0.27,2.953,0.586,4.67,0.948v11.503
	c-1.039-0.314-2.167-0.597-3.385-0.846c-1.217-0.246-2.448-0.474-3.689-0.676c-1.241-0.204-2.448-0.361-3.618-0.474
	c-1.175-0.113-2.233-0.17-3.181-0.17c-4.424,0-6.634,1.173-6.634,3.519c0,1.625,0.767,2.82,2.301,3.587
	c1.534,0.767,3.655,1.445,6.362,2.031c2.301,0.495,4.354,1.128,6.158,1.893c1.804,0.769,3.317,1.738,4.534,2.911
	c1.217,1.173,2.155,2.571,2.809,4.194c0.652,1.625,0.982,3.565,0.982,5.82c0,5.28-1.725,9.306-5.178,12.079
	C186.742,69.427,181.7,70.814,175.068,70.814z"/>
<path fill="#485156" d="M224.856,54.167c-0.542,0.047-1.094,0.068-1.659,0.068c-0.563,0-1.139,0-1.725,0h-2.301v15.768h-14.548
	V20.264c5.142-0.676,10.331-1.016,15.564-1.016c4.602,0,8.571,0.34,11.911,1.016c3.338,0.678,6.066,1.725,8.187,3.147
	s3.689,3.238,4.704,5.448s1.521,4.872,1.521,7.985c0,7.084-3.021,11.977-9.066,14.684l11.299,18.475h-15.902L224.856,54.167z
	 M222.961,43.205c1.668,0,3.068-0.102,4.196-0.304c1.126-0.204,2.019-0.542,2.673-1.016c0.652-0.474,1.115-1.118,1.387-1.929
	c0.27-0.812,0.406-1.827,0.406-3.045s-0.125-2.233-0.374-3.045c-0.246-0.812-0.699-1.455-1.351-1.929
	c-0.657-0.474-1.523-0.812-2.607-1.016c-1.082-0.202-2.458-0.304-4.126-0.304c-0.497,0-1.162,0.023-1.997,0.068
	c-0.835,0.045-1.5,0.091-1.997,0.136v12.111C219.893,43.116,221.157,43.205,222.961,43.205z"/>
<path fill="#485156" d="M256.437,19.926h14.55v50.076h-14.55V19.926z"/>
<path fill="#485156" d="M304.227,70.814c-8.301,0-14.48-2.097-18.541-6.294c-4.06-4.194-6.092-10.713-6.092-19.556
	c0-8.797,1.985-15.305,5.956-19.522c3.969-4.22,9.901-6.328,17.797-6.328c1.625,0,3.351,0.079,5.178,0.236
	c1.825,0.159,3.958,0.419,6.393,0.778v11.506c-1.262-0.136-2.356-0.259-3.281-0.372c-0.926-0.113-1.759-0.193-2.505-0.238
	c-0.744-0.045-1.421-0.079-2.029-0.102c-0.61-0.021-1.209-0.034-1.793-0.034c-2.165,0-3.937,0.181-5.312,0.542
	c-1.377,0.361-2.471,1.05-3.283,2.065c-0.812,1.014-1.377,2.448-1.691,4.296c-0.317,1.851-0.474,4.262-0.474,7.241
	c0,2.932,0.157,5.301,0.474,7.105c0.314,1.804,0.88,3.215,1.691,4.228c0.812,1.016,1.906,1.704,3.283,2.065
	c1.375,0.361,3.123,0.542,5.244,0.542c1.532,0,3.225-0.079,5.076-0.238c1.849-0.157,3.383-0.372,4.6-0.642v11.367
	c-1.443,0.406-3.113,0.733-5.008,0.982C308.018,70.689,306.123,70.814,304.227,70.814z"/>
<g>
	<path fill="#485156" d="M141.289,96.321l-1.879-9.86l-1.933,9.86h-2.989l-2.237-12.366h2.344l1.575,10.488l2.024-10.488h2.505
		l1.986,10.488l1.718-10.488h2.237l-2.273,12.366H141.289z"/>
	<path fill="#485156" d="M154.898,87.919c0.781,0.889,1.172,2.109,1.172,3.66c0,0.99-0.179,1.863-0.536,2.621
		c-0.358,0.758-0.872,1.346-1.539,1.762c-0.669,0.418-1.462,0.626-2.38,0.626c-1.396,0-2.488-0.444-3.276-1.333
		c-0.787-0.889-1.181-2.114-1.181-3.677c0-0.991,0.179-1.861,0.537-2.614c0.357-0.751,0.874-1.336,1.548-1.754
		c0.674-0.416,1.471-0.626,2.389-0.626C153.028,86.585,154.116,87.031,154.898,87.919z M149.575,91.579
		c0,1.121,0.171,1.947,0.51,2.477c0.34,0.531,0.85,0.797,1.53,0.797c0.679,0,1.189-0.268,1.529-0.805
		c0.341-0.537,0.51-1.36,0.51-2.469c0-1.111-0.169-1.93-0.51-2.462c-0.34-0.531-0.843-0.795-1.512-0.795
		C150.26,88.322,149.575,89.407,149.575,91.579z"/>
	<path fill="#485156" d="M163.838,86.729l-0.394,2.22c-0.285-0.072-0.566-0.107-0.841-0.107c-0.56,0-1.002,0.2-1.324,0.599
		c-0.322,0.399-0.578,1.017-0.769,1.853v5.028h-2.29v-9.468h1.986l0.215,1.861c0.225-0.679,0.555-1.201,0.984-1.565
		c0.428-0.365,0.923-0.546,1.484-0.546C163.236,86.604,163.552,86.645,163.838,86.729z"/>
	<path fill="#485156" d="M167.595,94.575c0.084,0.114,0.22,0.171,0.411,0.171c0.179,0,0.358-0.029,0.537-0.089l0.483,1.611
		c-0.512,0.213-1.056,0.321-1.628,0.321c-0.717,0-1.264-0.205-1.646-0.618c-0.382-0.411-0.573-1.01-0.573-1.798V83.06l2.291-0.251
		v11.203C167.471,94.275,167.512,94.463,167.595,94.575z"/>
	<path fill="#485156" d="M178.332,96.321h-2.022l-0.162-1.199c-0.297,0.454-0.674,0.812-1.126,1.075
		c-0.454,0.261-0.979,0.392-1.575,0.392c-1.158,0-2.047-0.447-2.667-1.341c-0.621-0.896-0.932-2.112-0.932-3.651
		c0-0.978,0.155-1.846,0.466-2.604c0.311-0.758,0.754-1.348,1.334-1.771c0.578-0.425,1.261-0.636,2.049-0.636
		c0.906,0,1.687,0.34,2.344,1.02v-4.796l2.29,0.251V96.321z M175.166,94.558c0.309-0.198,0.602-0.503,0.877-0.921v-4.332
		c-0.263-0.333-0.537-0.584-0.824-0.751s-0.609-0.251-0.966-0.251c-0.621,0-1.107,0.271-1.459,0.814
		c-0.351,0.544-0.529,1.363-0.529,2.462c0,1.169,0.155,2.006,0.466,2.513c0.311,0.507,0.764,0.761,1.36,0.761
		C174.497,94.853,174.855,94.754,175.166,94.558z"/>
	<path fill="#485156" d="M191.468,84.062c0.643,0.251,1.246,0.633,1.808,1.147l-1.199,1.36c-0.43-0.37-0.867-0.642-1.307-0.816
		c-0.442-0.172-0.92-0.259-1.431-0.259c-0.573,0-1.036,0.13-1.387,0.386c-0.351,0.256-0.529,0.618-0.529,1.082
		c0,0.311,0.07,0.568,0.206,0.769c0.137,0.203,0.386,0.394,0.742,0.573c0.358,0.179,0.889,0.375,1.594,0.59
		c1.217,0.382,2.133,0.857,2.747,1.423c0.615,0.566,0.922,1.394,0.922,2.479c0,0.739-0.188,1.396-0.564,1.967
		c-0.377,0.573-0.916,1.02-1.621,1.343c-0.703,0.322-1.539,0.483-2.505,0.483c-0.942,0-1.786-0.152-2.532-0.456
		s-1.387-0.718-1.925-1.244l1.254-1.396c0.906,0.846,1.955,1.269,3.15,1.269c0.679,0,1.228-0.16,1.645-0.483
		c0.418-0.322,0.628-0.775,0.628-1.36c0-0.358-0.072-0.653-0.215-0.886s-0.389-0.442-0.734-0.626
		c-0.346-0.184-0.848-0.379-1.503-0.582c-1.314-0.406-2.262-0.894-2.846-1.467c-0.585-0.573-0.877-1.324-0.877-2.256
		c0-0.679,0.179-1.276,0.537-1.79c0.357-0.512,0.855-0.911,1.493-1.198c0.638-0.287,1.363-0.43,2.175-0.43
		C190.066,83.686,190.823,83.811,191.468,84.062z"/>
	<path fill="#485156" d="M202.716,87.919c0.781,0.889,1.172,2.109,1.172,3.66c0,0.99-0.179,1.863-0.536,2.621
		c-0.358,0.758-0.872,1.346-1.539,1.762c-0.669,0.418-1.462,0.626-2.38,0.626c-1.396,0-2.488-0.444-3.276-1.333
		c-0.787-0.889-1.181-2.114-1.181-3.677c0-0.991,0.179-1.861,0.537-2.614c0.357-0.751,0.874-1.336,1.548-1.754
		c0.674-0.416,1.471-0.626,2.389-0.626C200.846,86.585,201.935,87.031,202.716,87.919z M197.393,91.579
		c0,1.121,0.171,1.947,0.51,2.477c0.34,0.531,0.85,0.797,1.53,0.797c0.679,0,1.189-0.268,1.529-0.805
		c0.341-0.537,0.51-1.36,0.51-2.469c0-1.111-0.169-1.93-0.51-2.462c-0.34-0.531-0.843-0.795-1.512-0.795
		C198.079,88.322,197.393,89.407,197.393,91.579z"/>
	<path fill="#485156" d="M208.21,82.461c0.268,0.268,0.403,0.599,0.403,0.993c0,0.392-0.135,0.722-0.403,0.984
		c-0.268,0.261-0.618,0.392-1.048,0.392c-0.416,0-0.759-0.131-1.029-0.392c-0.268-0.263-0.403-0.592-0.403-0.984
		c0-0.394,0.135-0.725,0.403-0.993c0.27-0.27,0.613-0.403,1.029-0.403C207.593,82.059,207.943,82.192,208.21,82.461z
		 M206.037,96.321v-9.468h2.29v9.468H206.037z"/>
	<path fill="#485156" d="M213.409,94.575c0.084,0.114,0.22,0.171,0.411,0.171c0.179,0,0.358-0.029,0.537-0.089l0.483,1.611
		c-0.512,0.213-1.056,0.321-1.628,0.321c-0.717,0-1.264-0.205-1.646-0.618c-0.382-0.411-0.573-1.01-0.573-1.798V83.06l2.291-0.251
		v11.203C213.285,94.275,213.326,94.463,213.409,94.575z"/>
	<path fill="#485156" d="M220.908,96.321V83.954h2.38v12.366H220.908z"/>
	<path fill="#485156" d="M233.138,87.346c0.473,0.507,0.708,1.215,0.708,2.121v6.854h-2.291v-6.495c0-0.561-0.099-0.955-0.295-1.182
		c-0.196-0.225-0.486-0.34-0.868-0.34c-0.392,0-0.747,0.123-1.065,0.367c-0.316,0.244-0.623,0.599-0.921,1.065v6.586h-2.29v-9.468
		h1.986l0.179,1.254c0.787-1.015,1.747-1.522,2.88-1.522C232.008,86.585,232.667,86.839,233.138,87.346z"/>
	<path fill="#485156" d="M239.367,84.859c-0.198,0.208-0.295,0.539-0.295,0.993v1.002h2.273l-0.251,1.646h-2.022v7.821h-2.291V88.5
		h-1.539v-1.646h1.539v-1.037c0-0.894,0.288-1.619,0.868-2.174c0.578-0.555,1.397-0.833,2.46-0.833c0.834,0,1.652,0.186,2.452,0.555
		l-0.662,1.539c-0.514-0.239-1.032-0.358-1.558-0.358C239.888,84.545,239.563,84.65,239.367,84.859z"/>
	<path fill="#485156" d="M249.674,87.919c0.781,0.889,1.172,2.109,1.172,3.66c0,0.99-0.179,1.863-0.536,2.621
		c-0.358,0.758-0.872,1.346-1.539,1.762c-0.669,0.418-1.462,0.626-2.38,0.626c-1.396,0-2.488-0.444-3.276-1.333
		c-0.787-0.889-1.181-2.114-1.181-3.677c0-0.991,0.179-1.861,0.537-2.614c0.357-0.751,0.874-1.336,1.548-1.754
		c0.674-0.416,1.471-0.626,2.389-0.626C247.804,86.585,248.893,87.031,249.674,87.919z M244.351,91.579
		c0,1.121,0.171,1.947,0.51,2.477c0.34,0.531,0.85,0.797,1.53,0.797c0.679,0,1.189-0.268,1.529-0.805
		c0.341-0.537,0.51-1.36,0.51-2.469c0-1.111-0.169-1.93-0.51-2.462c-0.34-0.531-0.843-0.795-1.512-0.795
		C245.037,88.322,244.351,89.407,244.351,91.579z"/>
	<path fill="#485156" d="M258.613,86.729l-0.394,2.22c-0.285-0.072-0.566-0.107-0.841-0.107c-0.56,0-1.002,0.2-1.324,0.599
		c-0.322,0.399-0.578,1.017-0.77,1.853v5.028h-2.29v-9.468h1.986l0.215,1.861c0.225-0.679,0.555-1.201,0.984-1.565
		c0.428-0.365,0.923-0.546,1.484-0.546C258.011,86.604,258.326,86.645,258.613,86.729z"/>
	<path fill="#485156" d="M271.911,87.363c0.452,0.52,0.679,1.22,0.679,2.104v6.854h-2.29v-6.495c0-1.015-0.346-1.522-1.039-1.522
		c-0.37,0-0.689,0.116-0.957,0.35c-0.268,0.232-0.546,0.594-0.833,1.082v6.586h-2.29v-6.495c0-1.015-0.346-1.522-1.037-1.522
		c-0.382,0-0.708,0.116-0.976,0.35c-0.268,0.232-0.546,0.594-0.833,1.082v6.586h-2.29v-9.468h1.986l0.179,1.235
		c0.715-1.002,1.628-1.503,2.738-1.503c0.548,0,1.022,0.138,1.421,0.411c0.401,0.275,0.696,0.669,0.887,1.182
		c0.369-0.526,0.78-0.923,1.234-1.191c0.454-0.268,0.984-0.403,1.594-0.403C270.848,86.585,271.457,86.845,271.911,87.363z"/>
	<path fill="#485156" d="M282.423,94.63c0.114,0.172,0.295,0.307,0.546,0.403l-0.483,1.52c-0.537-0.048-0.976-0.176-1.315-0.384
		c-0.34-0.208-0.599-0.539-0.778-0.993c-0.322,0.476-0.725,0.831-1.208,1.065c-0.483,0.232-1.024,0.348-1.619,0.348
		c-0.944,0-1.689-0.268-2.237-0.805c-0.549-0.536-0.824-1.24-0.824-2.111c0-1.027,0.374-1.81,1.119-2.355
		c0.746-0.543,1.81-0.814,3.194-0.814h1.181v-0.536c0-0.609-0.14-1.036-0.42-1.28c-0.282-0.246-0.732-0.367-1.351-0.367
		c-0.693,0-1.527,0.167-2.506,0.5l-0.536-1.556c1.181-0.454,2.326-0.681,3.435-0.681c2.423,0,3.634,1.087,3.634,3.257v3.974
		C282.254,94.185,282.31,94.458,282.423,94.63z M279.998,93.761v-1.914h-0.949c-1.479,0-2.218,0.549-2.218,1.646
		c0,0.454,0.113,0.805,0.34,1.056c0.227,0.249,0.561,0.375,1.002,0.375C278.949,94.925,279.556,94.538,279.998,93.761z"/>
	<path fill="#485156" d="M289.331,96.409c-0.411,0.119-0.833,0.179-1.261,0.179c-0.932-0.012-1.638-0.276-2.121-0.795
		c-0.483-0.52-0.725-1.286-0.725-2.3V88.5h-1.486v-1.646h1.486V84.76l2.291-0.268v2.361h2.201l-0.234,1.646h-1.967v4.939
		c0,0.466,0.08,0.8,0.241,1.003c0.162,0.203,0.415,0.304,0.761,0.304c0.358,0,0.734-0.119,1.128-0.358l0.805,1.486
		C290.116,96.113,289.742,96.292,289.331,96.409z"/>
	<path fill="#485156" d="M293.912,82.461c0.268,0.268,0.403,0.599,0.403,0.993c0,0.392-0.135,0.722-0.403,0.984
		c-0.268,0.261-0.618,0.392-1.048,0.392c-0.416,0-0.759-0.131-1.029-0.392c-0.268-0.263-0.403-0.592-0.403-0.984
		c0-0.394,0.135-0.725,0.403-0.993c0.27-0.27,0.613-0.403,1.029-0.403C293.295,82.059,293.644,82.192,293.912,82.461z
		 M291.739,96.321v-9.468h2.29v9.468H291.739z"/>
	<path fill="#485156" d="M303.916,87.919c0.781,0.889,1.172,2.109,1.172,3.66c0,0.99-0.179,1.863-0.536,2.621
		c-0.358,0.758-0.872,1.346-1.539,1.762c-0.669,0.418-1.462,0.626-2.38,0.626c-1.396,0-2.488-0.444-3.276-1.333
		c-0.787-0.889-1.181-2.114-1.181-3.677c0-0.991,0.179-1.861,0.537-2.614c0.357-0.751,0.874-1.336,1.548-1.754
		c0.674-0.416,1.471-0.626,2.389-0.626C302.046,86.585,303.134,87.031,303.916,87.919z M298.592,91.579
		c0,1.121,0.171,1.947,0.51,2.477c0.34,0.531,0.85,0.797,1.53,0.797c0.679,0,1.189-0.268,1.529-0.805
		c0.341-0.537,0.51-1.36,0.51-2.469c0-1.111-0.169-1.93-0.51-2.462c-0.34-0.531-0.843-0.795-1.512-0.795
		C299.278,88.322,298.592,89.407,298.592,91.579z"/>
	<path fill="#485156" d="M314.259,87.346c0.473,0.507,0.708,1.215,0.708,2.121v6.854h-2.291v-6.495c0-0.561-0.099-0.955-0.295-1.182
		c-0.196-0.225-0.486-0.34-0.868-0.34c-0.392,0-0.747,0.123-1.065,0.367c-0.316,0.244-0.623,0.599-0.921,1.065v6.586h-2.29v-9.468
		h1.986l0.179,1.254c0.787-1.015,1.747-1.522,2.88-1.522C313.129,86.585,313.788,86.839,314.259,87.346z"/>
</g>
<polygon fill="#50AF47" points="55.378,-1.172 55.378,-1.174 55.377,-1.174 "/>
<path fill="#49B170" d="M109.772,54.886c0-29.825-23.353-53.915-53.166-54.843l-0.266-0.014C56.099,0.014,55.857,0,55.614,0
	l-0.274,0.014l-0.284-0.01c0,0-0.008,0-0.01,0c-30.437,0-55.052,24.62-55.052,54.882c0,0.904,0.029,1.841,0.089,2.888h109.598
	C109.743,56.717,109.772,55.78,109.772,54.886z M28.134,30.854c-1.653,6.234-2.63,12.962-2.902,19.997l-0.044,1.141H5.863
	l0.108-1.286c0.787-9.331,4.229-18.202,9.951-25.657l0.643-0.837l0.906,0.543c2.963,1.776,6.302,3.352,9.926,4.683l1.015,0.374
	L28.134,30.854z M30.192,24.291l-1.094-0.408c-2.536-0.945-4.944-2.039-7.158-3.252l-1.451-0.796l1.221-1.117
	c4.009-3.672,8.559-6.638,13.526-8.818l3.904-1.713l-2.461,3.482c-2.329,3.297-4.368,7.175-6.063,11.531L30.192,24.291z
	 M51.987,51.998H30.974l0.054-1.237c0.277-6.324,1.169-12.419,2.652-18.119l0.294-1.131l1.134,0.278
	c5.009,1.223,10.31,1.984,15.755,2.262l1.125,0.057V51.998z M51.987,28.333l-1.256-0.078c-4.701-0.282-9.293-0.947-13.646-1.974
	l-1.333-0.314l0.503-1.274c3.557-9,8.553-15.302,14.068-17.745l1.665-0.737V28.333z M57.773,5.887l1.53,0.467
	c6.176,1.88,11.747,8.404,15.684,18.372L75.49,26l-1.333,0.314c-4.792,1.131-9.89,1.809-15.153,2.015l-1.232,0.049V5.887z
	 M57.773,51.998V34.165l1.142-0.041c5.944-0.214,11.731-1.004,17.201-2.35l1.136-0.278l0.294,1.131
	c1.483,5.707,2.375,11.807,2.652,18.133l0.054,1.237H57.773z M81.042,24.31l-0.424-1.09c-1.532-3.936-3.348-7.492-5.397-10.568
	l-2.468-3.703l3.983,1.984c4.334,2.16,8.326,4.956,11.867,8.312l1.206,1.143l-1.475,0.768c-1.951,1.017-4.037,1.939-6.197,2.746
	L81.042,24.31z M86.038,51.998l-0.044-1.141c-0.27-7.034-1.247-13.764-2.903-20.003l-0.278-1.045l1.016-0.372
	c3.169-1.161,6.177-2.545,8.941-4.113l0.91-0.516l0.626,0.839c5.44,7.314,8.721,15.981,9.489,25.065l0.108,1.286H86.038z"/>
<g>
	<g>
		<defs>
			<path id="SVGID_3_" d="M0.059,51.977C0.027,52.751,0,53.526,0,54.308c0,30.311,24.577,54.888,54.888,54.888
				c30.311,0,54.888-24.577,54.888-54.888c0-0.782-0.027-1.557-0.059-2.331h-4.892l0,0.001H83.228l0-0.001h-4.637l0,0.001H56.77
				v-0.001h-4.66v0.001H30.738l0-0.001h-4.66l0,0.001H4.951l0-0.001H0.059z"/>
		</defs>
		<clipPath id="SVGID_1_">
			<use xlink:href="#SVGID_3_"  overflow="visible"/>
		</clipPath>
		<rect x="-0.343" y="64.668" clip-path="url(#SVGID_1_)" fill="#8B2822" width="110.12" height="5.925"/>
		<rect x="-0.343" y="77.536" clip-path="url(#SVGID_1_)" fill="#DA5438" width="110.12" height="5.925"/>
		<rect x="-0.343" y="90.403" clip-path="url(#SVGID_1_)" fill="#F07F3C" width="110.12" height="5.925"/>
		<rect x="7.791" y="103.271" clip-path="url(#SVGID_1_)" fill="#FBBE5E" width="93.85" height="5.925"/>
	</g>
</g>
</svg>
