<?xml version="1.0" encoding="utf-8"?>
<!-- Generator: Adobe Illustrator 16.0.0, SVG Export Plug-In . SVG Version: 6.00 Build 0)  -->
<!DOCTYPE svg PUBLIC "-//W3C//DTD SVG 1.1//EN" "http://www.w3.org/Graphics/SVG/1.1/DTD/svg11.dtd">
<svg version="1.1" id="Layer_1" xmlns="http://www.w3.org/2000/svg" xmlns:xlink="http://www.w3.org/1999/xlink" x="0px" y="0px"
	 width="384px" height="384px" viewBox="114 201.5 384 384" enable-background="new 114 201.5 384 384" xml:space="preserve">
<ellipse fill="#80D1E7" cx="306" cy="393.759" rx="185.764" ry="182.132"/>
<g>
	<path fill="#FAAF40" stroke="#FFFFFF" stroke-width="4" stroke-miterlimit="10" d="M365.5,329.7
		c3.478,34.927-25.731,63.981-60.659,60.427c-25.886-2.627-46.75-23.723-49.068-49.687c-0.696-7.264,0.077-14.218,2.009-20.709
		c7.341-25.037,31.991-42.655,60.119-39.1C343.014,283.8,362.95,304.432,365.5,329.7z"/>
	<g>
		<g>
			<polygon fill="#FAAF40" points="428.322,346.468 374.464,331.168 372.609,352.032 			"/>
			<polygon fill="#FAAF40" points="192.95,325.373 246.809,340.673 248.664,319.809 			"/>
			<polygon fill="#FAAF40" points="326.709,273.909 321.223,218.273 305.845,272.055 			"/>
			<polygon fill="#FAAF40" points="354.914,289.673 377.322,238.441 337.682,277.85 			"/>
			<polygon fill="#FAAF40" points="264.427,291.604 213.118,269.195 252.604,308.914 			"/>
			<polygon fill="#FAAF40" points="371.914,317.336 416.577,283.646 362.641,298.559 			"/>
			<polygon fill="#FAAF40" points="258.4,229.941 273.313,283.877 292.091,274.604 			"/>
		</g>
	</g>
</g>
<path fill="#37B34A" stroke="#FFFFFF" stroke-width="4" stroke-miterlimit="10" d="M479.014,464.077H144.654
	c0,0-13.213-3.555-19.318-26.35c-6.104-22.796-3.941-62.359-3.941-62.359s5.409-7.418,12.75-4.559s31.141,25.5,37.786,25.5
	s71.4-62.899,92.264-62.281c20.864,0.618,60.582,43.582,79.591,44.277c18.932,0.695,37.786-22.718,60.582-22.023
	s75.264,45.436,84.923,53.086c4.637,3.632,1.236,8.5-0.464,14.836c-1.854,7.032-2.318,15.455-2.318,15.455L479.014,464.077z"/>
<path fill="#2E3191" stroke="#FFFFFF" stroke-width="4" stroke-miterlimit="10" d="M124.177,430c0,0,3.555,2.859,25.423,7.65
	s110.963,15.608,181.127-14.296c70.163-29.904,70.163-29.904,70.163-29.904s55.405,46.286,80.673,50.536l0,0
	c0,0-2.627,17.31-11.359,34.541c-1.545,3.091-5.254,8.577-7.031,11.822c-14.527,26.505-36.705,44.123-51.928,53.01
	c0,0-63.595,58.108-162.582,20.091C149.677,525.432,120.545,443.214,124.177,430z"/>
<path fill="#0093C0" stroke="#FFFFFF" stroke-width="4" stroke-miterlimit="10" d="M154.623,497.072c0,0,55.714-7.959,87.086-32.995
	c0,0,79.514,69.236,169.459,75.573c0,0-51.309,34.772-72.404,34.463c-21.096-0.309-64.832,4.868-105.014-12.595
	C193.568,543.978,152.614,503.022,154.623,497.072z"/>
<path fill="#FFFFFF" d="M200.445,285.191c-5.332-2.241-14.063-5.795-19.164-0.85c-1.623,1.545,0.077,3.323-2.164,4.173
	c-0.85,0.309-2.086-0.077-3.014-0.077c-1.313,0-2.705,0.154-4.018,0.231c-1.7,0.155-4.482,0.155-5.641,2.009
	c-1.236,2.009,1.082,3.014,0.85,4.559c-0.463,2.937-10.664,4.791-5.177,9.041c2.009,1.545,6.259,2.937,8.809,2.937
	c1.854,0,3.477-0.31,5.409,0c1.932,0.309,3.786,0,5.718-0.31c5.409-0.85,13.832-6.104,17.85-0.541
	c1.932,2.627,6.491,3.554,9.582,3.4c2.318-0.077,7.959-1.391,8.036-4.868c0.078-2.318-2.009-3.091,1.314-4.327
	c3.168-1.159,7.341-0.387,10.741-0.773c1.391-0.154,5.718-1.004,6.414-2.705c0.85-2.009-2.241-2.164-3.323-2.55
	c-3.863-1.313-9.504,0-12.75-3.091c-1.159-1.082-0.772-2.473-1.7-3.709c-0.85-1.082-2.241-1.7-3.168-2.473
	c-1.623-1.391-3.632-2.086-5.718-2.396c-0.85-0.154-2.782,0.232-3.014-0.077L200.445,285.191z"/>
<path fill="#FFFFFF" d="M441.382,302.346c-6.104-3.323-19.473-9.428-23.027,1.082c-1.082,3.246,0.231,6.104-3.091,7.341
	c-3.709,1.391-7.65,1.314-11.282,3.246c-2.936,1.545-6.49,5.177-5.331,8.964c1.699,5.486,11.514,7.032,15.454,6.645
	c3.323-0.309,10.2-3.786,12.209,0.773c0.851,1.854,0.695,4.327,1.623,6.182c1.391,2.705,4.25,3.941,6.8,4.559
	c6.646,1.623,11.9-3.323,17.464-6.336c1.854-1.004,4.095-1.932,6.182-2.086c2.782-0.309,4.019,0.386,6.259,1.854
	c4.404,2.859,14.296,0.309,15.223-5.409c1.005-6.259-2.704-5.409-4.481-8.423c-3.091-5.486-0.077-2.627-1.082-6.723
	c-1.005-4.25-3.478-5.95-6.104-5.563c-1.7,0.231-1.005-1.623-2.318-3.246c-0.772-0.85-5.641-1.236-5.641-1.236
	s-2.086-2.473-3.091-3.323c-2.164-1.854-4.404-2.782-7.032-1.236c-1.699,1.004-2.55,2.473-4.713,2.241L441.382,302.346z"/>
<path fill="none" stroke="#F1F1F2" stroke-width="9" stroke-miterlimit="10" d="M491.764,393.373
	c0,100.377-83.146,181.823-185.687,181.823s-185.686-81.368-185.686-181.823c0-100.377,83.145-181.823,185.686-181.823
	C408.618,211.627,491.764,292.996,491.764,393.373z"/>
</svg>
