<?xml version="1.0" encoding="UTF-8" standalone="no"?>
<!-- Created with Inkscape (http://www.inkscape.org/) -->

<svg
   xmlns:dc="http://purl.org/dc/elements/1.1/"
   xmlns:cc="http://creativecommons.org/ns#"
   xmlns:rdf="http://www.w3.org/1999/02/22-rdf-syntax-ns#"
   xmlns:svg="http://www.w3.org/2000/svg"
   xmlns="http://www.w3.org/2000/svg"
   xmlns:sodipodi="http://sodipodi.sourceforge.net/DTD/sodipodi-0.dtd"
   xmlns:inkscape="http://www.inkscape.org/namespaces/inkscape"
   width="68.705627mm"
   height="59.989307mm"
   viewBox="0 0 68.705627 59.989307"
   version="1.1"
   id="svg156"
   inkscape:version="0.92.5 (2060ec1f9f, 2020-04-08)"
   sodipodi:docname="pndb_logo.svg">
  <defs
     id="defs150" />
  <sodipodi:namedview
     id="base"
     pagecolor="#ffffff"
     bordercolor="#666666"
     borderopacity="1.0"
     inkscape:pageopacity="0.0"
     inkscape:pageshadow="2"
     inkscape:zoom="0.35"
     inkscape:cx="-433.02071"
     inkscape:cy="44.794381"
     inkscape:document-units="mm"
     inkscape:current-layer="layer1"
     showgrid="false"
     inkscape:window-width="3838"
     inkscape:window-height="2107"
     inkscape:window-x="0"
     inkscape:window-y="28"
     inkscape:window-maximized="1" />
  <metadata
     id="metadata153">
    <rdf:RDF>
      <cc:Work
         rdf:about="">
        <dc:format>image/svg+xml</dc:format>
        <dc:type
           rdf:resource="http://purl.org/dc/dcmitype/StillImage" />
        <dc:title></dc:title>
      </cc:Work>
    </rdf:RDF>
  </metadata>
  <g
     inkscape:label="Calque 1"
     inkscape:groupmode="layer"
     id="layer1"
     transform="translate(-70.724824,-100.69587)">
    <g
       id="g162-3-6"
       style="fill:#262866;fill-opacity:1"
       inkscape:export-filename="/home/ju/test_inkscape.png"
       inkscape:export-xdpi="1203"
       inkscape:export-ydpi="1203"
       transform="matrix(0.45535601,0,0,0.45535601,-8.2195267,33.800751)">
      <g
         id="use160-5-1"
         style="fill:#262866;fill-opacity:1"
         transform="translate(195.10741,226.91879)">
        <path
           inkscape:connector-curvature="0"
           style="fill:#262866;fill-opacity:1;stroke:none"
           d="m 22.546875,-19.78125 c 0,1.59375 -0.25,3.007812 -0.75,4.234375 -0.492187,1.230469 -1.214844,2.265625 -2.171875,3.109375 -0.949219,0.84375 -2.117188,1.484375 -3.5,1.921875 -1.386719,0.4375 -3.011719,0.65625 -4.875,0.65625 H 8.875 v 9.0625 c 0,0.148437 -0.054688,0.28125 -0.15625,0.40625 C 8.625,-0.273438 8.46875,-0.179688 8.25,-0.109375 8.03125,-0.0351562 7.738281,0.0195312 7.375,0.0625 7.007812,0.101562 6.539062,0.125 5.96875,0.125 5.414062,0.125 4.953125,0.101562 4.578125,0.0625 4.203125,0.0195312 3.90625,-0.0351562 3.6875,-0.109375 3.46875,-0.179688 3.3125,-0.273438 3.21875,-0.390625 c -0.085938,-0.125 -0.125,-0.257813 -0.125,-0.40625 V -26.34375 c 0,-0.6875 0.175781,-1.203125 0.53125,-1.546875 0.363281,-0.34375 0.835938,-0.515625 1.421875,-0.515625 H 11.75 c 0.664062,0 1.300781,0.02734 1.90625,0.07813 0.613281,0.04297 1.34375,0.152344 2.1875,0.328125 0.851562,0.167969 1.710938,0.480469 2.578125,0.9375 0.875,0.449219 1.617187,1.023438 2.234375,1.71875 0.613281,0.6875 1.082031,1.5 1.40625,2.4375 0.320312,0.929688 0.484375,1.96875 0.484375,3.125 z m -6.03125,0.421875 c 0,-1 -0.179687,-1.820313 -0.53125,-2.46875 -0.355469,-0.644531 -0.789063,-1.117187 -1.296875,-1.421875 -0.511719,-0.3125 -1.046875,-0.503906 -1.609375,-0.578125 -0.5625,-0.08203 -1.148437,-0.125 -1.75,-0.125 H 8.875 v 9.640625 h 2.59375 c 0.914062,0 1.6875,-0.125 2.3125,-0.375 0.625,-0.25 1.128906,-0.597656 1.515625,-1.046875 0.394531,-0.445313 0.695313,-0.976563 0.90625,-1.59375 0.207031,-0.625 0.3125,-1.300781 0.3125,-2.03125 z m 0,0"
           id="path914-8" />
      </g>
    </g>
    <g
       id="g166-6-7"
       style="fill:#262866;fill-opacity:1"
       inkscape:export-filename="/home/ju/test_inkscape.png"
       inkscape:export-xdpi="1203"
       inkscape:export-ydpi="1203"
       transform="matrix(0.45735976,0,0,0.45735976,-17.099547,33.402969)">
      <g
         id="use164-2-9"
         style="fill:#262866;fill-opacity:1"
         transform="translate(295.10132,226.91879)">
        <path
           inkscape:connector-curvature="0"
           style="fill:#262866;fill-opacity:1;stroke:none"
           d="m 23.671875,-8.515625 c 0,1.011719 -0.140625,1.929687 -0.421875,2.75 -0.28125,0.8125 -0.667969,1.539063 -1.15625,2.171875 -0.492188,0.625 -1.074219,1.167969 -1.75,1.625 -0.679688,0.449219 -1.429688,0.820312 -2.25,1.109375 -0.824219,0.292969 -1.699219,0.511719 -2.625,0.65625 C 14.539062,-0.0664062 13.503906,0 12.359375,0 H 4.8125 C 4.320312,0 3.910156,-0.140625 3.578125,-0.421875 3.253906,-0.710938 3.09375,-1.179688 3.09375,-1.828125 V -26.59375 c 0,-0.644531 0.160156,-1.109375 0.484375,-1.390625 0.332031,-0.28125 0.742187,-0.421875 1.234375,-0.421875 h 7.125 c 1.75,0 3.226562,0.148438 4.4375,0.4375 1.207031,0.292969 2.222656,0.734375 3.046875,1.328125 0.820313,0.59375 1.453125,1.34375 1.890625,2.25 0.445312,0.90625 0.671875,1.976563 0.671875,3.203125 0,0.6875 -0.08984,1.339844 -0.265625,1.953125 -0.179688,0.605469 -0.4375,1.15625 -0.78125,1.65625 -0.335938,0.492187 -0.746094,0.929687 -1.234375,1.3125 -0.492187,0.375 -1.046875,0.683594 -1.671875,0.921875 0.800781,0.148438 1.539062,0.402344 2.21875,0.765625 0.6875,0.367187 1.28125,0.839844 1.78125,1.421875 0.507812,0.574219 0.910156,1.25 1.203125,2.03125 0.289063,0.773438 0.4375,1.640625 0.4375,2.609375 z m -7.46875,-11.96875 c 0,-0.570313 -0.08984,-1.082031 -0.265625,-1.53125 -0.179688,-0.457031 -0.445312,-0.835937 -0.796875,-1.140625 -0.34375,-0.300781 -0.789063,-0.53125 -1.328125,-0.6875 -0.53125,-0.164062 -1.242188,-0.25 -2.125,-0.25 H 8.765625 v 7.390625 h 3.21875 c 0.832031,0 1.5,-0.09766 2,-0.296875 0.5,-0.195312 0.910156,-0.46875 1.234375,-0.8125 0.332031,-0.34375 0.578125,-0.742188 0.734375,-1.203125 0.164063,-0.46875 0.25,-0.957031 0.25,-1.46875 z m 1.46875,12.15625 c 0,-0.65625 -0.109375,-1.242187 -0.328125,-1.765625 -0.21875,-0.519531 -0.542969,-0.953125 -0.96875,-1.296875 -0.417969,-0.351563 -0.960938,-0.625 -1.625,-0.8125 C 14.09375,-12.398438 13.238281,-12.5 12.1875,-12.5 H 8.765625 v 8.09375 H 12.9375 c 0.800781,0 1.472656,-0.082031 2.015625,-0.25 0.550781,-0.175781 1.03125,-0.425781 1.4375,-0.75 0.40625,-0.332031 0.71875,-0.742188 0.9375,-1.234375 0.226563,-0.488281 0.34375,-1.050781 0.34375,-1.6875 z m 0,0"
           id="path918-2" />
      </g>
    </g>
    <g
       id="g170-9-0"
       style="fill:#262866;fill-opacity:1"
       inkscape:export-filename="/home/ju/test_inkscape.png"
       inkscape:export-xdpi="1203"
       inkscape:export-ydpi="1203"
       transform="matrix(0.45735976,0,0,0.45735976,-14.156367,33.402969)">
      <g
         id="use168-1-23"
         style="fill:#262866;fill-opacity:1"
         transform="translate(259.98654,226.91879)">
        <path
           inkscape:connector-curvature="0"
           style="fill:#262866;fill-opacity:1;stroke:none"
           d="m 26.703125,-14.625 c 0,2.605469 -0.34375,4.835938 -1.03125,6.6875 C 24.992188,-6.082031 24.019531,-4.566406 22.75,-3.390625 21.476562,-2.222656 19.929688,-1.363281 18.109375,-0.8125 16.285156,-0.269531 14.113281,0 11.59375,0 H 4.8125 C 4.320312,0 3.910156,-0.140625 3.578125,-0.421875 3.253906,-0.710938 3.09375,-1.179688 3.09375,-1.828125 V -26.59375 c 0,-0.644531 0.160156,-1.109375 0.484375,-1.390625 0.332031,-0.28125 0.742187,-0.421875 1.234375,-0.421875 h 7.28125 c 2.53125,0 4.675781,0.296875 6.4375,0.890625 1.769531,0.585937 3.257812,1.460937 4.46875,2.625 1.207031,1.167969 2.125,2.609375 2.75,4.328125 0.632812,1.710938 0.953125,3.6875 0.953125,5.9375 z m -5.96875,0.203125 c 0,-1.351563 -0.164063,-2.609375 -0.484375,-3.765625 -0.3125,-1.15625 -0.820312,-2.15625 -1.515625,-3 -0.6875,-0.851562 -1.578125,-1.515625 -2.671875,-1.984375 -1.09375,-0.476563 -2.527344,-0.71875 -4.296875,-0.71875 H 8.84375 V -4.5625 h 3.015625 c 1.582031,0 2.914063,-0.203125 4,-0.609375 1.082031,-0.414063 1.984375,-1.035156 2.703125,-1.859375 0.726562,-0.832031 1.269531,-1.863281 1.625,-3.09375 0.363281,-1.226562 0.546875,-2.660156 0.546875,-4.296875 z m 0,0"
           id="path922-75" />
      </g>
    </g>
    <g
       id="g174-2-9"
       style="fill:#262866;fill-opacity:1"
       inkscape:export-filename="/home/ju/test_inkscape.png"
       inkscape:export-xdpi="1203"
       inkscape:export-ydpi="1203"
       transform="matrix(0.45386469,0,0,0.45386469,-10.879427,34.139346)">
      <g
         id="use172-7-22"
         style="fill:#262866;fill-opacity:1"
         transform="translate(225.81596,226.91879)">
        <path
           inkscape:connector-curvature="0"
           style="fill:#262866;fill-opacity:1;stroke:none"
           d="m 26.53125,-2.015625 c 0,0.335937 -0.0625,0.636719 -0.1875,0.90625 -0.117188,0.261719 -0.273438,0.480469 -0.46875,0.65625 -0.199219,0.167969 -0.433594,0.292969 -0.703125,0.375 -0.273437,0.08203125 -0.546875,0.125 -0.828125,0.125 h -2.453125 c -0.511719,0 -0.953125,-0.05078125 -1.328125,-0.15625 -0.375,-0.101563 -0.71875,-0.289063 -1.03125,-0.5625 -0.3125,-0.269531 -0.617188,-0.632813 -0.90625,-1.09375 -0.292969,-0.457031 -0.625,-1.054687 -1,-1.796875 l -7.0625,-13.28125 c -0.40625,-0.789062 -0.824219,-1.640625 -1.25,-2.546875 C 8.882812,-20.304688 8.503906,-21.195312 8.171875,-22.0625 H 8.125 c 0.0625,1.054688 0.101562,2.105469 0.125,3.15625 0.03125,1.042969 0.046875,2.121094 0.046875,3.234375 V -0.8125 c 0,0.148438 -0.042969,0.28125 -0.125,0.40625 -0.074219,0.117188 -0.210937,0.214844 -0.40625,0.296875 C 7.566406,-0.0351562 7.296875,0.0195312 6.953125,0.0625 6.617188,0.101562 6.191406,0.125 5.671875,0.125 5.148438,0.125 4.722656,0.101562 4.390625,0.0625 4.054688,0.0195312 3.789062,-0.0351562 3.59375,-0.109375 3.40625,-0.191406 3.273438,-0.289062 3.203125,-0.40625 3.128906,-0.53125 3.09375,-0.664062 3.09375,-0.8125 v -25.53125 c 0,-0.6875 0.195312,-1.203125 0.59375,-1.546875 0.40625,-0.34375 0.90625,-0.515625 1.5,-0.515625 h 3.09375 c 0.550781,0 1.015625,0.04687 1.390625,0.140625 0.382813,0.09375 0.726563,0.25 1.03125,0.46875 0.300781,0.21875 0.582031,0.523437 0.84375,0.90625 0.257813,0.386719 0.53125,0.867187 0.8125,1.4375 l 5.53125,10.390625 c 0.320313,0.625 0.640625,1.246094 0.953125,1.859375 0.320312,0.605469 0.628906,1.214844 0.921875,1.828125 0.289063,0.605469 0.570313,1.199219 0.84375,1.78125 0.28125,0.585938 0.554687,1.167969 0.828125,1.75 h 0.01563 c -0.04297,-1.019531 -0.07422,-2.085938 -0.09375,-3.203125 -0.02344,-1.113281 -0.03125,-2.175781 -0.03125,-3.1875 V -27.5625 c 0,-0.144531 0.03906,-0.273438 0.125,-0.390625 0.08203,-0.113281 0.226563,-0.210937 0.4375,-0.296875 0.207031,-0.09375 0.476563,-0.15625 0.8125,-0.1875 C 23.035156,-28.476562 23.46875,-28.5 24,-28.5 c 0.5,0 0.914062,0.02344 1.25,0.0625 0.332031,0.03125 0.59375,0.09375 0.78125,0.1875 0.1875,0.08594 0.316406,0.183594 0.390625,0.296875 0.07031,0.117187 0.109375,0.246094 0.109375,0.390625 z m 0,0"
           id="path926-8" />
      </g>
    </g>
    <path
       inkscape:connector-curvature="0"
       id="path88-5-0-97"
       d="m 130.08465,115.34348 -0.0298,-0.018 -24.30532,-13.95141 c -0.46091,-0.26585 -1.02968,-0.26423 -1.48713,0.003 l -24.237966,14.07401 c -0.46145,0.26747 -0.743,0.75966 -0.74216,1.29056 l 0.0698,28.02689 c 0.002,0.51799 0.27437,0.99939 0.71676,1.26775 l 0.0298,0.0179 24.306276,13.95538 c 0.46247,0.26331 1.03119,0.26172 1.48864,-0.004 l 24.23797,-14.07403 c 0.45994,-0.26499 0.7415,-0.75717 0.7407,-1.28804 l -0.0683,-28.02934 c -0.002,-0.51801 -0.27434,-0.9994 -0.71924,-1.26927 m -0.77192,1.2725 0.0698,28.02689 -24.23547,14.07551 -24.306279,-13.95538 -0.0663,-26.64245 -0.004,-1.38444 13.80151,-8.01307 10.434949,-6.05846 24.3053,13.95139"
       style="fill:#028152;fill-opacity:1;fill-rule:nonzero;stroke:none;stroke-width:0.74416363;paint-order:stroke markers fill"
       inkscape:export-filename="/home/ju/test_inkscape.png"
       inkscape:export-xdpi="1203"
       inkscape:export-ydpi="1203"
       sodipodi:nodetypes="cccccccscccccccccccccccc" />
    <path
       inkscape:connector-curvature="0"
       id="path88-5-0-9-3"
       style="fill:#6fd596;fill-opacity:1;fill-rule:nonzero;stroke:none;stroke-width:0.7406534"
       d="m 113.2618,102.5268 c -0.12856,-0.005 -0.25878,0.008 -0.38706,0.0377 l -27.174567,6.30039 c -0.51722,0.1195 -0.92919,0.50497 -1.08366,1.01027 l -8.13076,26.68364 c -0.15009,0.49324 -0.0313,1.03125 0.31109,1.41594 l 0.0233,0.0258 19.04224,20.3848 c 0.36296,0.38575 0.90444,0.55094 1.41749,0.4315 l 27.174567,-6.30039 c 0.51507,-0.11759 0.92707,-0.50346 1.08158,-1.00873 l 8.13285,-26.68571 c 0.15008,-0.49322 0.0312,-1.03114 -0.31317,-1.418 l -0.0233,-0.0258 -19.04225,-20.38118 c -0.27055,-0.29079 -0.64266,-0.45623 -1.02836,-0.47026 z m -0.0553,1.48104 19.04225,20.38119 h 2.6e-4 l -8.13067,26.68364 -27.172497,6.30246 -19.04226,-20.3848 7.72873,-25.3659 0.40153,-1.31775 15.473477,-3.58686 z" />
    <path
       inkscape:connector-curvature="0"
       id="path88-5-61"
       d="m 121.44871,100.71998 -0.0406,-0.001 -32.617801,-0.0231 c -0.61929,-0.002 -1.19272,0.32905 -1.50044,0.86289 l -16.33159,28.23874 c -0.31119,0.53714 -0.31069,1.1971 -0.002,1.73273 l 16.28956,28.26191 c 0.30176,0.52193 0.85539,0.85045 1.45743,0.86543 l 0.0406,0.001 32.621071,0.0266 c 0.61938,-0.002 1.19279,-0.33244 1.50051,-0.86628 l 16.33161,-28.23879 c 0.3111,-0.53375 0.3106,-1.19372 0.002,-1.72935 l -16.2894,-28.26529 c -0.30176,-0.52192 -0.85539,-0.85044 -1.46082,-0.8655 m -0.0431,1.73171 16.28956,28.26191 -16.32821,28.23882 -32.621082,-0.0266 -15.4849,-26.86586 -0.80466,-1.39606 9.30003,-16.07869 7.03149,-12.15666 32.617772,0.0231"
       style="fill:#262866;fill-opacity:1;fill-rule:nonzero;stroke:none;stroke-width:0.86612236"
       inkscape:export-filename="/home/ju/test_inkscape.png"
       inkscape:export-xdpi="1203"
       inkscape:export-ydpi="1203"
       sodipodi:nodetypes="cccccccscccccccccccccccc" />
    <path
       inkscape:connector-curvature="0"
       id="path88-5-0-3-2"
       style="fill:#028152;fill-opacity:1;fill-rule:nonzero;stroke:none;stroke-width:0.74416363;paint-order:stroke markers fill"
       d="m 100.0657,105.53393 -4.933547,1.1436 -4.35581,2.52956 4.93149,-1.1436 z m 16.4574,2.02416 3.45973,3.70262 4.37338,2.51044 -3.45922,-3.70262 z m -35.737867,14.88902 -1.47692,4.84673 0.0124,5.04362 1.47691,-4.84725 z m 50.048617,6.58564 -1.47846,4.8519 0.0124,5.04724 1.47846,-4.85087 z m -45.040667,18.57407 3.45819,3.70158 4.37286,2.51096 -3.45818,-3.7021 z m 33.591757,4.56302 -4.93303,1.14412 -4.3584,2.53163 4.92994,-1.14308 z m -18.32602,4.25039 -0.45837,0.10645 c 0.11546,-0.009 0.22913,-0.0455 0.34158,-0.0724 0.0378,-0.009 0.0775,-0.0134 0.11369,-0.0274 8e-4,-0.002 0.002,-0.004 0.003,-0.007 z m 1.55547,0.84388 c 0.0109,0.0132 0.021,0.0275 0.0315,0.0408 0.002,-0.006 0.004,-0.0127 0.006,-0.0191 z" />
  </g>
</svg>
