<?xml version="1.0" encoding="utf-8"?>
<!-- Generator: Adobe Illustrator 24.0.1, SVG Export Plug-In . SVG Version: 6.00 Build 0)  -->
<svg version="1.1" id="Layer_1" xmlns="http://www.w3.org/2000/svg" xmlns:xlink="http://www.w3.org/1999/xlink" x="0px" y="0px"
	 viewBox="0 0 288 288" style="enable-background:new 0 0 288 288;" xml:space="preserve">
<style type="text/css">
	.st0{fill:#FFFFFF;}
	.st1{fill:#005B7D;}
	.st2{fill:#FEEDE5;}
	.st3{fill:#FBB040;}
	.st4{fill:#EF4056;}
	.st5{fill:#00ACCD;}
</style>
<g>
	<g>
		<path class="st1" d="M94.3,109.1l3.5-4.9l3,2.2l-3.5,4.9l4.7,3.4l-2.4,3.4l-13.1-9.5l6.6-9.1l3,2.2l-4.1,5.7L94.3,109.1z"/>
		<path class="st1" d="M107.9,102.5l5.1-4.3l2.4,2.8l-8.3,7L96.6,95.7l3.2-2.7L107.9,102.5z"/>
		<path class="st1" d="M122.9,97.6c-4.5,2.1-8.6,0.5-10.8-4.3s-0.7-8.9,3.8-11c4.5-2.1,8.6-0.5,10.8,4.3
			C128.9,91.4,127.4,95.5,122.9,97.6z M121.3,94.3c2-0.9,2.7-2.9,1.4-5.8c-1.3-2.9-3.3-3.7-5.3-2.8c-2,0.9-2.7,2.9-1.4,5.8
			C117.3,94.4,119.3,95.2,121.3,94.3z"/>
		<path class="st1" d="M135.7,77c4.7-0.6,7,1.2,7.4,4.3c0.4,3.5-2.8,4.5-2.8,4.5l0,0.2c0,0,1,0.2,1.5,1l0.8,1.2
			c0.3,0.4,0.7,0.7,1.6,0.6l0.6-0.1l0.4,3.3c0,0-0.8,0.4-1.8,0.6c-2.2,0.3-3.3-0.6-4.2-2l-1-1.6c-0.4-0.6-0.9-1-1.7-0.9l-1.6,0.2
			l0.6,5l-4.1,0.5l-2-16L135.7,77z M136.6,84.4c1.7-0.2,2.3-0.9,2.2-2.1c-0.1-1.1-0.9-1.7-2.6-1.5L134,81l0.4,3.7L136.6,84.4z"/>
		<path class="st1" d="M151,93.1l-4.1-0.4l1.5-16.1l4.1,0.4L151,93.1z"/>
		<path class="st1" d="M159.4,95l-5.7-1.9l5.1-15.3l5.7,1.9c5.1,1.7,7,5.5,5.4,10.3S164.5,96.7,159.4,95z M163.3,83.2l-1.8-0.6
			l-2.8,8.3l1.8,0.6c2.5,0.8,4.3,0,5.2-2.9C166.7,85.8,165.8,84,163.3,83.2z"/>
		<path class="st1" d="M172.5,97.9l-2.3,1.7l-3.6-2.5l14.2-9.8l3.6,2.5l-4.3,16.7l-3.6-2.5l0.8-2.8L172.5,97.9z M180,92
			c0,0-0.5,0.7-1.7,1.6l-2.7,2.1l2.6,1.8l1-3.2c0.4-1.4,0.9-2.2,0.9-2.2L180,92z"/>
		<path class="st1" d="M191.8,94.3c1,1,1,2.1-0.2,3.3c-1.8,1.9-4.2,1.9-5.9,0.4l1.3-1.3c0.7,0.6,1.2,0.5,1.6,0.3
			c-0.7-0.9-0.8-1.9,0.1-2.8C189.7,93.4,190.8,93.4,191.8,94.3z"/>
		<path class="st1" d="M190.3,112.2c1.7-1.2-3.7-7.2,0.7-10.4c2.1-1.6,5.4-1.1,7.6,2c2.3,3.2,1.9,6.1,0.1,7.4
			c-0.6,0.5-1.2,0.6-1.2,0.6l-2.5-3.3c0,0,0.3,0,0.5-0.2c0.7-0.5,0.9-1.4,0.2-2.3c-0.6-0.8-1.6-1-2.1-0.6c-1.7,1.2,3.7,7.2-0.7,10.4
			c-2.3,1.7-5.5,1.2-8-2.1c-2.5-3.4-1.7-7-1.7-7l3.6,0.1c0,0-0.6,2.5,1,4.6C188.7,112.5,189.6,112.7,190.3,112.2z"/>
	</g>
	<g>
		<path class="st1" d="M96.9,174.8c-0.8,0.4-1.6,0.5-1.6,0.5l-1.9-3.8c0,0,0.4,0,1-0.3c0.9-0.5,1.3-1.5,0.7-2.8
			c-0.9-1.9-2.9-2.6-5.7-1.2c-2.9,1.4-3.7,3.6-2.6,5.7c1.2,2.4,3.3,2.9,3.3,2.9l-1.5,3c0,0-3.4-0.8-5.3-4.6
			c-2.2-4.5-0.7-8.6,4.1-10.9c4.8-2.3,8.9-0.9,11,3.5C100.3,170.5,99.3,173.6,96.9,174.8z"/>
		<path class="st1" d="M94.3,189.9c-3.4-3.6-3.2-8,0.7-11.6c3.9-3.6,8.3-3.4,11.7,0.2c3.4,3.6,3.2,8-0.7,11.6
			C102.1,193.7,97.7,193.5,94.3,189.9z M97,187.4c1.5,1.6,3.6,1.7,6-0.5c2.4-2.2,2.4-4.3,1-5.9c-1.5-1.6-3.6-1.7-6,0.5
			C95.6,183.7,95.5,185.8,97,187.4z"/>
		<path class="st1" d="M118.2,188.2c4.1,2.4,4.8,5.2,3.3,7.9c-1.8,3.1-5,1.9-5,1.9l-0.1,0.2c0,0,0.6,0.8,0.6,1.7l0,1.4
			c0,0.5,0.1,1,0.9,1.5l0.5,0.3l-1.7,2.9c0,0-0.9-0.1-1.8-0.6c-1.9-1.1-2.2-2.5-2.1-4.2l0.2-1.9c0.1-0.8-0.1-1.4-0.8-1.8l-1.4-0.8
			l-2.6,4.4l-3.6-2.1l8.1-13.9L118.2,188.2z M114.5,194.5c1.5,0.9,2.4,0.7,3-0.4c0.6-1,0.3-1.9-1.2-2.8l-1.9-1.1l-1.9,3.2
			L114.5,194.5z"/>
		<path class="st1" d="M125.8,206l-1.6,2.5l-4.3-1l9.7-14.3l4.3,1l2,17.1l-4.3-1l-0.2-2.9L125.8,206z M130.6,197.7
			c0,0-0.2,0.9-1,2.1l-1.8,2.9l3.1,0.8l-0.2-3.4c-0.1-1.4,0.1-2.4,0.1-2.4L130.6,197.7z"/>
		<path class="st1" d="M143.9,207.6l6.7-0.1l0.1,3.7l-10.8,0.2l-0.3-16.1l4.1-0.1L143.9,207.6z"/>
		<path class="st1" d="M162.7,191.6c4.4-1.7,7.1-0.6,8.2,2.3c1.3,3.3-1.6,5.1-1.6,5.1l0.1,0.2c0,0,1,0,1.7,0.6l1.1,0.9
			c0.4,0.3,0.8,0.5,1.7,0.2l0.5-0.2l1.2,3.1c0,0-0.6,0.6-1.6,1c-2,0.8-3.4,0.2-4.6-0.9l-1.4-1.3c-0.6-0.5-1.2-0.8-1.9-0.5l-1.5,0.6
			l1.9,4.7l-3.9,1.5l-5.9-15L162.7,191.6z M165.4,198.5c1.6-0.6,2-1.5,1.6-2.6c-0.4-1.1-1.3-1.5-2.9-0.8l-2,0.8l1.4,3.4L165.4,198.5
			z"/>
		<path class="st1" d="M177.3,190.7l4.7-3.5l2.2,3l-4.7,3.5l1.5,2l5.7-4.3l2.2,3l-9.1,6.7l-9.6-12.9l9.1-6.7l2.2,3l-5.7,4.3
			L177.3,190.7z"/>
		<path class="st1" d="M188.1,180.7l3.7-4.6l2.9,2.3l-3.7,4.6l2,1.6l4.5-5.6l2.9,2.3l-7.1,8.8l-12.6-10.1l7.1-8.8l2.9,2.3l-4.5,5.6
			L188.1,180.7z"/>
		<path class="st1" d="M196.4,168.6l2.5-5.5l3.4,1.5l-2.5,5.5l5.3,2.4l-1.7,3.8l-14.7-6.6l4.6-10.2l3.4,1.5l-2.9,6.4L196.4,168.6z"
			/>
	</g>
	<g>
		<g>
			<circle class="st5" cx="85" cy="137.7" r="3.5"/>
			<circle class="st5" cx="85.2" cy="151.5" r="3.5"/>
			<circle class="st5" cx="88.1" cy="124.1" r="3.5"/>
		</g>
		<g>
			<circle class="st5" cx="203" cy="137.7" r="3.5"/>
			<circle class="st5" cx="202.8" cy="151.5" r="3.5"/>
			<circle class="st5" cx="199.9" cy="124.1" r="3.5"/>
		</g>
	</g>
	<g>
		<g>
			<path class="st5" d="M144,187.2c-23.9,0-43.3-19.4-43.3-43.3c0-5.8,1.2-11.6,3.5-17c0.4-1,1.6-1.5,2.6-1.1c1,0.4,1.5,1.6,1.1,2.6
				c-2.1,5-3.2,10.1-3.2,15.4c0,21,16.5,38.2,37.2,39.2c-0.6-15.5-8.2-22.5-15.6-29.3c-7.1-6.5-14.4-13.2-14.4-26.7
				c0-10.5,4.9-18.3,14.2-22.7c7.8-3.7,16.3-3.8,18.2-3.8c0.8-0.1,1.6,0.3,2,1c0.3,0.6,0.3,1.4,0,2c-0.2,0.4-0.6,0.7-1,0.8
				c-3.9,2.2-7.4,5-10.4,8.5c2.9,3.4,6.4,6.2,10.4,8.5c1.5,0.6,1.6,2.7,0.3,3.5c-1.4,0.9-12.6,0.4-22.2-4.9c-1-0.5-1.3-1.7-0.8-2.7
				c0.5-1,1.7-1.3,2.7-0.8c3.7,2,7.7,3.4,11.9,4.1c-2.4-1.9-4.5-4.1-6.4-6.5c-0.6-0.7-0.6-1.8,0-2.5c1.9-2.4,4.1-4.6,6.4-6.5
				c-8.5,1.4-21.3,6.1-21.3,21.9c0,11.8,6.1,17.3,13.1,23.8c7.9,7.3,16.9,15.6,16.9,34.3C146,186.3,145.1,187.2,144,187.2z"/>
			<path class="st4" d="M182.9,127.1c-1-0.4-2.2,0.1-2.6,1.1c-0.1,0.4-0.3,0.7-0.5,1.1c-1.1,2.2-2.5,4.2-4.3,5.9
				c-1.8-1.3-3-3.4-3.3-5.6c-0.1-1.1-1.1-1.9-2.2-1.8c-1.1,0.1-1.9,1.1-1.8,2.2c0.4,3,1.8,5.7,4.1,7.7c-3.1,2-6.6,3.4-10.3,3.7
				c0.5-5.2,0.1-10-0.5-14.3c5.3-2.2,10.2-5.6,14.3-9.7c0.8-0.8,0.8-2.1,0-2.8c-0.8-0.8-2.1-0.8-2.8,0c-3.4,3.5-7.6,6.4-12,8.4
				c0-0.3-0.1-0.5-0.1-0.8c-1.2-7.2-1.8-11.5,0.3-15.7c0.5-1,0.1-2.2-0.9-2.7c-1-0.5-2.2-0.1-2.7,0.9c-1.5,3-1.9,5.9-1.8,9.3
				c-3.1-0.5-5.9-2.1-7.8-4.6c-0.7-0.9-1.9-1-2.8-0.4c-0.9,0.7-1,1.9-0.4,2.8c2.7,3.5,6.9,5.8,11.3,6.2c0.2,1.5,0.4,3.1,0.7,4.8
				c1.6,9.8,3.8,23-6,38.1c-1.5-2.9-3.3-5.5-5.2-7.8c0.4-0.4,0.8-0.9,1.2-1.4c4.8-6.2,4.9-15.7,0.2-22c-0.7-0.9-1.9-1.1-2.8-0.4
				c-0.9,0.7-1.1,1.9-0.4,2.8c3.6,4.9,3.6,12.3-0.2,17.2c-0.2,0.3-0.4,0.5-0.7,0.8c-2.4-2.6-4.8-4.8-7-6.8c-0.9-0.8-1.7-1.6-2.5-2.3
				c2.6-3.1,4.1-7.1,4.3-11.1c0-1.1-0.8-2-1.9-2.1c-1.1-0.1-2,0.8-2.1,1.9c-0.1,3-1.3,6-3.1,8.4c-2.5-2.7-3.9-5.2-4.3-8.6
				c-0.1-1.1-1.1-1.9-2.2-1.8c-1.1,0.1-1.9,1.1-1.8,2.2c0.8,6.7,4.5,10.4,10.9,16.3c7.8,7.2,18.6,17.1,19,37.7c0,1.1,0.9,2,2,2
				c0,0,0,0,0,0c1.1,0,2-0.9,2-2c-0.1-7.4-1.5-13.4-3.5-18.6c5-7,7.5-13.7,8.7-19.8c9.2-0.4,17.9-6.1,22-14.4
				c0.2-0.4,0.4-0.9,0.6-1.3C184.5,128.7,184,127.6,182.9,127.1z"/>
			<path class="st3" d="M167.3,177.8c-5.5,0-9.9-4.4-9.9-9.9c0-5.5,4.4-9.9,9.9-9.9c5.5,0,9.9,4.4,9.9,9.9
				C177.2,173.4,172.8,177.8,167.3,177.8z M167.3,162c-3.3,0-5.9,2.7-5.9,5.9c0,3.3,2.7,5.9,5.9,5.9c3.3,0,5.9-2.7,5.9-5.9
				C173.2,164.6,170.6,162,167.3,162z"/>
			<path class="st3" d="M179.8,158.8c-3.7,0-6.6-3-6.6-6.6c0-3.7,3-6.6,6.6-6.6s6.6,3,6.6,6.6C186.5,155.8,183.5,158.8,179.8,158.8z
				 M179.8,149.5c-1.4,0-2.6,1.2-2.6,2.6c0,1.4,1.2,2.6,2.6,2.6s2.6-1.2,2.6-2.6C182.4,150.7,181.3,149.5,179.8,149.5z"/>
			<circle class="st5" cx="130.9" cy="169.6" r="3.5"/>
			<circle class="st3" cx="166.8" cy="151.5" r="3.5"/>
			<circle class="st3" cx="184.1" cy="140.4" r="3"/>
		</g>
	</g>
</g>
</svg>
